<svg width="96" height="83" viewBox="0 0 96 83" fill="none" xmlns="http://www.w3.org/2000/svg">
<circle cx="1.54225" cy="1.54225" r="1.54225" transform="matrix(-1 0 0 1 95.3525 0.591553)" fill="white" fill-opacity="0.1"/>
<circle cx="1.54225" cy="1.54225" r="1.54225" transform="matrix(-1 0 0 1 82.2681 0.591553)" fill="white" fill-opacity="0.1"/>
<circle cx="1.54225" cy="1.54225" r="1.54225" transform="matrix(-1 0 0 1 69.1836 0.591553)" fill="white" fill-opacity="0.1"/>
<circle cx="1.54225" cy="1.54225" r="1.54225" transform="matrix(-1 0 0 1 56.0991 0.591553)" fill="white" fill-opacity="0.1"/>
<circle cx="1.54225" cy="1.54225" r="1.54225" transform="matrix(-1 0 0 1 95.3525 13.676)" fill="white" fill-opacity="0.1"/>
<circle cx="1.54225" cy="1.54225" r="1.54225" transform="matrix(-1 0 0 1 82.2681 13.676)" fill="white" fill-opacity="0.1"/>
<circle cx="1.54225" cy="1.54225" r="1.54225" transform="matrix(-1 0 0 1 69.1836 13.676)" fill="white" fill-opacity="0.1"/>
<circle cx="1.54225" cy="1.54225" r="1.54225" transform="matrix(-1 0 0 1 56.0991 13.676)" fill="white" fill-opacity="0.1"/>
<circle cx="1.54225" cy="1.54225" r="1.54225" transform="matrix(-1 0 0 1 95.3525 26.7605)" fill="white" fill-opacity="0.1"/>
<circle cx="1.54225" cy="1.54225" r="1.54225" transform="matrix(-1 0 0 1 82.2681 26.7605)" fill="white" fill-opacity="0.1"/>
<circle cx="1.54225" cy="1.54225" r="1.54225" transform="matrix(-1 0 0 1 69.1836 26.7605)" fill="white" fill-opacity="0.1"/>
<circle cx="1.54225" cy="1.54225" r="1.54225" transform="matrix(-1 0 0 1 56.0991 26.7605)" fill="white" fill-opacity="0.1"/>
<circle cx="1.54225" cy="1.54225" r="1.54225" transform="matrix(-1 0 0 1 95.3525 39.845)" fill="white" fill-opacity="0.1"/>
<circle cx="1.54225" cy="1.54225" r="1.54225" transform="matrix(-1 0 0 1 82.2681 39.845)" fill="white" fill-opacity="0.1"/>
<circle cx="1.54225" cy="1.54225" r="1.54225" transform="matrix(-1 0 0 1 69.1836 39.845)" fill="white" fill-opacity="0.1"/>
<circle cx="1.54225" cy="1.54225" r="1.54225" transform="matrix(-1 0 0 1 56.0991 39.845)" fill="white" fill-opacity="0.1"/>
<circle cx="1.54225" cy="1.54225" r="1.54225" transform="matrix(-1 0 0 1 43.0146 39.845)" fill="white" fill-opacity="0.1"/>
<circle cx="1.54225" cy="1.54225" r="1.54225" transform="matrix(-1 0 0 1 29.9302 39.845)" fill="white" fill-opacity="0.1"/>
<circle cx="1.54225" cy="1.54225" r="1.54225" transform="matrix(-1 0 0 1 16.8457 39.845)" fill="white" fill-opacity="0.1"/>
<circle cx="1.54225" cy="1.54225" r="1.54225" transform="matrix(-1 0 0 1 3.76123 39.845)" fill="white" fill-opacity="0.1"/>
<circle cx="1.54225" cy="1.54225" r="1.54225" transform="matrix(-1 0 0 1 95.3525 52.9297)" fill="white" fill-opacity="0.1"/>
<circle cx="1.54225" cy="1.54225" r="1.54225" transform="matrix(-1 0 0 1 82.2681 52.9297)" fill="white" fill-opacity="0.1"/>
<circle cx="1.54225" cy="1.54225" r="1.54225" transform="matrix(-1 0 0 1 69.1836 52.9297)" fill="white" fill-opacity="0.1"/>
<circle cx="1.54225" cy="1.54225" r="1.54225" transform="matrix(-1 0 0 1 56.0991 52.9297)" fill="white" fill-opacity="0.1"/>
<circle cx="1.54225" cy="1.54225" r="1.54225" transform="matrix(-1 0 0 1 43.0146 52.9297)" fill="white" fill-opacity="0.1"/>
<circle cx="1.54225" cy="1.54225" r="1.54225" transform="matrix(-1 0 0 1 29.9302 52.9297)" fill="white" fill-opacity="0.1"/>
<circle cx="1.54225" cy="1.54225" r="1.54225" transform="matrix(-1 0 0 1 16.8457 52.9297)" fill="white" fill-opacity="0.1"/>
<circle cx="1.54225" cy="1.54225" r="1.54225" transform="matrix(-1 0 0 1 3.76123 52.9297)" fill="white" fill-opacity="0.1"/>
<circle cx="1.54225" cy="1.54225" r="1.54225" transform="matrix(-1 0 0 1 95.3525 66.0142)" fill="white" fill-opacity="0.1"/>
<circle cx="1.54225" cy="1.54225" r="1.54225" transform="matrix(-1 0 0 1 82.2681 66.0142)" fill="white" fill-opacity="0.1"/>
<circle cx="1.54225" cy="1.54225" r="1.54225" transform="matrix(-1 0 0 1 69.1836 66.0142)" fill="white" fill-opacity="0.1"/>
<circle cx="1.54225" cy="1.54225" r="1.54225" transform="matrix(-1 0 0 1 56.0991 66.0142)" fill="white" fill-opacity="0.1"/>
<circle cx="1.54225" cy="1.54225" r="1.54225" transform="matrix(-1 0 0 1 43.0146 66.0142)" fill="white" fill-opacity="0.1"/>
<circle cx="1.54225" cy="1.54225" r="1.54225" transform="matrix(-1 0 0 1 29.9302 66.0142)" fill="white" fill-opacity="0.1"/>
<circle cx="1.54225" cy="1.54225" r="1.54225" transform="matrix(-1 0 0 1 16.8457 66.0142)" fill="white" fill-opacity="0.1"/>
<circle cx="1.54225" cy="1.54225" r="1.54225" transform="matrix(-1 0 0 1 3.76123 66.0142)" fill="white" fill-opacity="0.1"/>
<circle cx="1.54225" cy="1.54225" r="1.54225" transform="matrix(-1 0 0 1 95.3525 79.0986)" fill="white" fill-opacity="0.1"/>
<circle cx="1.54225" cy="1.54225" r="1.54225" transform="matrix(-1 0 0 1 82.2681 79.0986)" fill="white" fill-opacity="0.1"/>
<circle cx="1.54225" cy="1.54225" r="1.54225" transform="matrix(-1 0 0 1 69.1836 79.0986)" fill="white" fill-opacity="0.1"/>
<circle cx="1.54225" cy="1.54225" r="1.54225" transform="matrix(-1 0 0 1 56.0991 79.0986)" fill="white" fill-opacity="0.1"/>
<circle cx="1.54225" cy="1.54225" r="1.54225" transform="matrix(-1 0 0 1 43.0146 79.0986)" fill="white" fill-opacity="0.1"/>
<circle cx="1.54225" cy="1.54225" r="1.54225" transform="matrix(-1 0 0 1 29.9302 79.0986)" fill="white" fill-opacity="0.1"/>
<circle cx="1.54225" cy="1.54225" r="1.54225" transform="matrix(-1 0 0 1 16.8457 79.0986)" fill="white" fill-opacity="0.1"/>
<circle cx="1.54225" cy="1.54225" r="1.54225" transform="matrix(-1 0 0 1 3.76123 79.0986)" fill="white" fill-opacity="0.1"/>
</svg>
