<svg width="95" height="83" viewBox="0 0 95 83" fill="none" xmlns="http://www.w3.org/2000/svg">
<circle cx="1.54225" cy="2.13381" r="1.54225" fill="white" fill-opacity="0.1"/>
<circle cx="14.6267" cy="2.13381" r="1.54225" fill="white" fill-opacity="0.1"/>
<circle cx="27.7112" cy="2.13381" r="1.54225" fill="white" fill-opacity="0.1"/>
<circle cx="40.7957" cy="2.13381" r="1.54225" fill="white" fill-opacity="0.1"/>
<circle cx="1.54225" cy="15.2183" r="1.54225" fill="white" fill-opacity="0.1"/>
<circle cx="14.6267" cy="15.2183" r="1.54225" fill="white" fill-opacity="0.1"/>
<circle cx="27.7112" cy="15.2183" r="1.54225" fill="white" fill-opacity="0.1"/>
<circle cx="40.7957" cy="15.2183" r="1.54225" fill="white" fill-opacity="0.1"/>
<circle cx="1.54225" cy="28.3028" r="1.54225" fill="white" fill-opacity="0.1"/>
<circle cx="14.6267" cy="28.3028" r="1.54225" fill="white" fill-opacity="0.1"/>
<circle cx="27.7112" cy="28.3028" r="1.54225" fill="white" fill-opacity="0.1"/>
<circle cx="40.7957" cy="28.3028" r="1.54225" fill="white" fill-opacity="0.1"/>
<circle cx="1.54225" cy="41.3872" r="1.54225" fill="white" fill-opacity="0.1"/>
<circle cx="14.6267" cy="41.3872" r="1.54225" fill="white" fill-opacity="0.1"/>
<circle cx="27.7112" cy="41.3872" r="1.54225" fill="white" fill-opacity="0.1"/>
<circle cx="40.7957" cy="41.3872" r="1.54225" fill="white" fill-opacity="0.1"/>
<circle cx="53.8801" cy="41.3872" r="1.54225" fill="white" fill-opacity="0.1"/>
<circle cx="66.9646" cy="41.3872" r="1.54225" fill="white" fill-opacity="0.1"/>
<circle cx="80.0491" cy="41.3872" r="1.54225" fill="white" fill-opacity="0.1"/>
<circle cx="93.1336" cy="41.3872" r="1.54225" fill="white" fill-opacity="0.1"/>
<circle cx="1.54225" cy="54.4719" r="1.54225" fill="white" fill-opacity="0.1"/>
<circle cx="14.6267" cy="54.4719" r="1.54225" fill="white" fill-opacity="0.1"/>
<circle cx="27.7112" cy="54.4719" r="1.54225" fill="white" fill-opacity="0.1"/>
<circle cx="40.7957" cy="54.4719" r="1.54225" fill="white" fill-opacity="0.1"/>
<circle cx="53.8801" cy="54.4719" r="1.54225" fill="white" fill-opacity="0.1"/>
<circle cx="66.9646" cy="54.4719" r="1.54225" fill="white" fill-opacity="0.1"/>
<circle cx="80.0491" cy="54.4719" r="1.54225" fill="white" fill-opacity="0.1"/>
<circle cx="93.1336" cy="54.4719" r="1.54225" fill="white" fill-opacity="0.1"/>
<circle cx="1.54225" cy="67.5564" r="1.54225" fill="white" fill-opacity="0.1"/>
<circle cx="14.6267" cy="67.5564" r="1.54225" fill="white" fill-opacity="0.1"/>
<circle cx="27.7112" cy="67.5564" r="1.54225" fill="white" fill-opacity="0.1"/>
<circle cx="40.7957" cy="67.5564" r="1.54225" fill="white" fill-opacity="0.1"/>
<circle cx="53.8801" cy="67.5564" r="1.54225" fill="white" fill-opacity="0.1"/>
<circle cx="66.9646" cy="67.5564" r="1.54225" fill="white" fill-opacity="0.1"/>
<circle cx="80.0491" cy="67.5564" r="1.54225" fill="white" fill-opacity="0.1"/>
<circle cx="93.1336" cy="67.5564" r="1.54225" fill="white" fill-opacity="0.1"/>
<circle cx="1.54225" cy="80.6409" r="1.54225" fill="white" fill-opacity="0.1"/>
<circle cx="14.6267" cy="80.6409" r="1.54225" fill="white" fill-opacity="0.1"/>
<circle cx="27.7112" cy="80.6409" r="1.54225" fill="white" fill-opacity="0.1"/>
<circle cx="40.7957" cy="80.6409" r="1.54225" fill="white" fill-opacity="0.1"/>
<circle cx="53.8801" cy="80.6409" r="1.54225" fill="white" fill-opacity="0.1"/>
<circle cx="66.9646" cy="80.6409" r="1.54225" fill="white" fill-opacity="0.1"/>
<circle cx="80.0491" cy="80.6409" r="1.54225" fill="white" fill-opacity="0.1"/>
<circle cx="93.1336" cy="80.6409" r="1.54225" fill="white" fill-opacity="0.1"/>
</svg>
