<svg width="95" height="82" viewBox="0 0 95 82" fill="none" xmlns="http://www.w3.org/2000/svg">
<circle cx="93.1335" cy="80.0493" r="1.54225" transform="rotate(-180 93.1335 80.0493)" fill="black" fill-opacity="0.1"/>
<circle cx="80.0491" cy="80.0493" r="1.54225" transform="rotate(-180 80.0491 80.0493)" fill="black" fill-opacity="0.1"/>
<circle cx="66.9646" cy="80.0493" r="1.54225" transform="rotate(-180 66.9646 80.0493)" fill="black" fill-opacity="0.1"/>
<circle cx="53.8801" cy="80.0493" r="1.54225" transform="rotate(-180 53.8801 80.0493)" fill="black" fill-opacity="0.1"/>
<circle cx="93.1335" cy="66.9648" r="1.54225" transform="rotate(-180 93.1335 66.9648)" fill="black" fill-opacity="0.1"/>
<circle cx="80.0491" cy="66.9648" r="1.54225" transform="rotate(-180 80.0491 66.9648)" fill="black" fill-opacity="0.1"/>
<circle cx="66.9646" cy="66.9648" r="1.54225" transform="rotate(-180 66.9646 66.9648)" fill="black" fill-opacity="0.1"/>
<circle cx="53.8801" cy="66.9648" r="1.54225" transform="rotate(-180 53.8801 66.9648)" fill="black" fill-opacity="0.1"/>
<circle cx="93.1335" cy="53.8804" r="1.54225" transform="rotate(-180 93.1335 53.8804)" fill="black" fill-opacity="0.1"/>
<circle cx="80.0491" cy="53.8804" r="1.54225" transform="rotate(-180 80.0491 53.8804)" fill="black" fill-opacity="0.1"/>
<circle cx="66.9646" cy="53.8804" r="1.54225" transform="rotate(-180 66.9646 53.8804)" fill="black" fill-opacity="0.1"/>
<circle cx="53.8801" cy="53.8804" r="1.54225" transform="rotate(-180 53.8801 53.8804)" fill="black" fill-opacity="0.1"/>
<circle cx="93.1335" cy="40.7959" r="1.54225" transform="rotate(-180 93.1335 40.7959)" fill="black" fill-opacity="0.1"/>
<circle cx="80.0491" cy="40.7959" r="1.54225" transform="rotate(-180 80.0491 40.7959)" fill="black" fill-opacity="0.1"/>
<circle cx="66.9646" cy="40.7959" r="1.54225" transform="rotate(-180 66.9646 40.7959)" fill="black" fill-opacity="0.1"/>
<circle cx="53.8801" cy="40.7959" r="1.54225" transform="rotate(-180 53.8801 40.7959)" fill="black" fill-opacity="0.1"/>
<circle cx="40.7956" cy="40.7959" r="1.54225" transform="rotate(-180 40.7956 40.7959)" fill="black" fill-opacity="0.1"/>
<circle cx="27.7112" cy="40.7959" r="1.54225" transform="rotate(-180 27.7112 40.7959)" fill="black" fill-opacity="0.1"/>
<circle cx="14.6267" cy="40.7959" r="1.54225" transform="rotate(-180 14.6267 40.7959)" fill="black" fill-opacity="0.1"/>
<circle cx="1.54222" cy="40.7959" r="1.54225" transform="rotate(-180 1.54222 40.7959)" fill="black" fill-opacity="0.1"/>
<circle cx="93.1335" cy="27.7112" r="1.54225" transform="rotate(-180 93.1335 27.7112)" fill="black" fill-opacity="0.1"/>
<circle cx="80.0491" cy="27.7112" r="1.54225" transform="rotate(-180 80.0491 27.7112)" fill="black" fill-opacity="0.1"/>
<circle cx="66.9646" cy="27.7112" r="1.54225" transform="rotate(-180 66.9646 27.7112)" fill="black" fill-opacity="0.1"/>
<circle cx="53.8801" cy="27.7112" r="1.54225" transform="rotate(-180 53.8801 27.7112)" fill="black" fill-opacity="0.1"/>
<circle cx="40.7956" cy="27.7112" r="1.54225" transform="rotate(-180 40.7956 27.7112)" fill="black" fill-opacity="0.1"/>
<circle cx="27.7112" cy="27.7112" r="1.54225" transform="rotate(-180 27.7112 27.7112)" fill="black" fill-opacity="0.1"/>
<circle cx="14.6267" cy="27.7112" r="1.54225" transform="rotate(-180 14.6267 27.7112)" fill="black" fill-opacity="0.1"/>
<circle cx="1.54222" cy="27.7112" r="1.54225" transform="rotate(-180 1.54222 27.7112)" fill="black" fill-opacity="0.1"/>
<circle cx="93.1335" cy="14.6267" r="1.54225" transform="rotate(-180 93.1335 14.6267)" fill="black" fill-opacity="0.1"/>
<circle cx="80.0491" cy="14.6267" r="1.54225" transform="rotate(-180 80.0491 14.6267)" fill="black" fill-opacity="0.1"/>
<circle cx="66.9646" cy="14.6267" r="1.54225" transform="rotate(-180 66.9646 14.6267)" fill="black" fill-opacity="0.1"/>
<circle cx="53.8801" cy="14.6267" r="1.54225" transform="rotate(-180 53.8801 14.6267)" fill="black" fill-opacity="0.1"/>
<circle cx="40.7956" cy="14.6267" r="1.54225" transform="rotate(-180 40.7956 14.6267)" fill="black" fill-opacity="0.1"/>
<circle cx="27.7112" cy="14.6267" r="1.54225" transform="rotate(-180 27.7112 14.6267)" fill="black" fill-opacity="0.1"/>
<circle cx="14.6267" cy="14.6267" r="1.54225" transform="rotate(-180 14.6267 14.6267)" fill="black" fill-opacity="0.1"/>
<circle cx="1.54222" cy="14.6267" r="1.54225" transform="rotate(-180 1.54222 14.6267)" fill="black" fill-opacity="0.1"/>
<circle cx="93.1335" cy="1.54222" r="1.54225" transform="rotate(-180 93.1335 1.54222)" fill="black" fill-opacity="0.1"/>
<circle cx="80.0491" cy="1.54222" r="1.54225" transform="rotate(-180 80.0491 1.54222)" fill="black" fill-opacity="0.1"/>
<circle cx="66.9646" cy="1.54222" r="1.54225" transform="rotate(-180 66.9646 1.54222)" fill="black" fill-opacity="0.1"/>
<circle cx="53.8801" cy="1.54222" r="1.54225" transform="rotate(-180 53.8801 1.54222)" fill="black" fill-opacity="0.1"/>
<circle cx="40.7956" cy="1.54222" r="1.54225" transform="rotate(-180 40.7956 1.54222)" fill="black" fill-opacity="0.1"/>
<circle cx="27.7112" cy="1.54222" r="1.54225" transform="rotate(-180 27.7112 1.54222)" fill="black" fill-opacity="0.1"/>
<circle cx="14.6267" cy="1.54222" r="1.54225" transform="rotate(-180 14.6267 1.54222)" fill="black" fill-opacity="0.1"/>
<circle cx="1.54222" cy="1.54222" r="1.54225" transform="rotate(-180 1.54222 1.54222)" fill="black" fill-opacity="0.1"/>
</svg>
