<svg width="95" height="82" viewBox="0 0 95 82" fill="none" xmlns="http://www.w3.org/2000/svg">
<circle cx="1.54225" cy="1.54225" r="1.54225" fill="black" fill-opacity="0.1"/>
<circle cx="14.6267" cy="1.54225" r="1.54225" fill="black" fill-opacity="0.1"/>
<circle cx="27.7112" cy="1.54225" r="1.54225" fill="black" fill-opacity="0.1"/>
<circle cx="40.7957" cy="1.54225" r="1.54225" fill="black" fill-opacity="0.1"/>
<circle cx="1.54225" cy="14.6267" r="1.54225" fill="black" fill-opacity="0.1"/>
<circle cx="14.6267" cy="14.6267" r="1.54225" fill="black" fill-opacity="0.1"/>
<circle cx="27.7112" cy="14.6267" r="1.54225" fill="black" fill-opacity="0.1"/>
<circle cx="40.7957" cy="14.6267" r="1.54225" fill="black" fill-opacity="0.1"/>
<circle cx="1.54225" cy="27.7112" r="1.54225" fill="black" fill-opacity="0.1"/>
<circle cx="14.6267" cy="27.7112" r="1.54225" fill="black" fill-opacity="0.1"/>
<circle cx="27.7112" cy="27.7112" r="1.54225" fill="black" fill-opacity="0.1"/>
<circle cx="40.7957" cy="27.7112" r="1.54225" fill="black" fill-opacity="0.1"/>
<circle cx="1.54225" cy="40.7957" r="1.54225" fill="black" fill-opacity="0.1"/>
<circle cx="14.6267" cy="40.7957" r="1.54225" fill="black" fill-opacity="0.1"/>
<circle cx="27.7112" cy="40.7957" r="1.54225" fill="black" fill-opacity="0.1"/>
<circle cx="40.7957" cy="40.7957" r="1.54225" fill="black" fill-opacity="0.1"/>
<circle cx="53.8801" cy="40.7957" r="1.54225" fill="black" fill-opacity="0.1"/>
<circle cx="66.9646" cy="40.7957" r="1.54225" fill="black" fill-opacity="0.1"/>
<circle cx="80.0491" cy="40.7957" r="1.54225" fill="black" fill-opacity="0.1"/>
<circle cx="93.1336" cy="40.7957" r="1.54225" fill="black" fill-opacity="0.1"/>
<circle cx="1.54225" cy="53.8804" r="1.54225" fill="black" fill-opacity="0.1"/>
<circle cx="14.6267" cy="53.8804" r="1.54225" fill="black" fill-opacity="0.1"/>
<circle cx="27.7112" cy="53.8804" r="1.54225" fill="black" fill-opacity="0.1"/>
<circle cx="40.7957" cy="53.8804" r="1.54225" fill="black" fill-opacity="0.1"/>
<circle cx="53.8801" cy="53.8804" r="1.54225" fill="black" fill-opacity="0.1"/>
<circle cx="66.9646" cy="53.8804" r="1.54225" fill="black" fill-opacity="0.1"/>
<circle cx="80.0491" cy="53.8804" r="1.54225" fill="black" fill-opacity="0.1"/>
<circle cx="93.1336" cy="53.8804" r="1.54225" fill="black" fill-opacity="0.1"/>
<circle cx="1.54225" cy="66.9649" r="1.54225" fill="black" fill-opacity="0.1"/>
<circle cx="14.6267" cy="66.9649" r="1.54225" fill="black" fill-opacity="0.1"/>
<circle cx="27.7112" cy="66.9649" r="1.54225" fill="black" fill-opacity="0.1"/>
<circle cx="40.7957" cy="66.9649" r="1.54225" fill="black" fill-opacity="0.1"/>
<circle cx="53.8801" cy="66.9649" r="1.54225" fill="black" fill-opacity="0.1"/>
<circle cx="66.9646" cy="66.9649" r="1.54225" fill="black" fill-opacity="0.1"/>
<circle cx="80.0491" cy="66.9649" r="1.54225" fill="black" fill-opacity="0.1"/>
<circle cx="93.1336" cy="66.9649" r="1.54225" fill="black" fill-opacity="0.1"/>
<circle cx="1.54225" cy="80.0493" r="1.54225" fill="black" fill-opacity="0.1"/>
<circle cx="14.6267" cy="80.0493" r="1.54225" fill="black" fill-opacity="0.1"/>
<circle cx="27.7112" cy="80.0493" r="1.54225" fill="black" fill-opacity="0.1"/>
<circle cx="40.7957" cy="80.0493" r="1.54225" fill="black" fill-opacity="0.1"/>
<circle cx="53.8801" cy="80.0493" r="1.54225" fill="black" fill-opacity="0.1"/>
<circle cx="66.9646" cy="80.0493" r="1.54225" fill="black" fill-opacity="0.1"/>
<circle cx="80.0491" cy="80.0493" r="1.54225" fill="black" fill-opacity="0.1"/>
<circle cx="93.1336" cy="80.0493" r="1.54225" fill="black" fill-opacity="0.1"/>
</svg>
