<svg width="126" height="31" viewBox="0 0 126 31" fill="none" xmlns="http://www.w3.org/2000/svg">
<g clip-path="url(#clip0_77_169)">
<path d="M70.4381 0.217773H68.5675C68.1915 0.217773 67.8867 0.522587 67.8867 0.898594V22.2482C67.8867 22.6242 68.1915 22.929 68.5675 22.929H70.4381C70.8141 22.929 71.1189 22.6242 71.1189 22.2482V0.898594C71.1189 0.522587 70.8141 0.217773 70.4381 0.217773Z" fill="#A1A3B0"/>
<path d="M70.4381 0.217773H68.5675C68.1915 0.217773 67.8867 0.522587 67.8867 0.898594V22.2482C67.8867 22.6242 68.1915 22.929 68.5675 22.929H70.4381C70.8141 22.929 71.1189 22.6242 71.1189 22.2482V0.898594C71.1189 0.522587 70.8141 0.217773 70.4381 0.217773Z" fill="#A1A3B0"/>
<path d="M80.5131 7.76172C76.1119 7.76172 72.9141 10.9973 72.9141 15.4536C72.9141 19.9649 76.1119 23.2384 80.5131 23.2384C83.4015 23.2384 85.7981 21.9764 87.0875 19.7792C87.1363 19.6937 87.1661 19.5987 87.175 19.5006C87.1839 19.4026 87.1717 19.3038 87.1391 19.2108C87.1065 19.1179 87.0543 19.0331 86.9861 18.9621C86.9179 18.8911 86.8352 18.8356 86.7437 18.7993L86.056 18.5483C85.7603 18.4451 85.4645 18.3385 85.186 18.2285C85.0469 18.1683 84.8913 18.1572 84.7451 18.1972C84.5988 18.2372 84.4706 18.3259 84.3814 18.4485C83.9499 19.0413 83.3792 19.5189 82.7196 19.8391C82.06 20.1593 81.3318 20.3123 80.5991 20.2847C78.4156 20.2847 76.748 19.0606 76.246 17.0903C76.2376 17.0535 76.2376 17.0152 76.246 16.9783C76.2543 16.9414 76.2707 16.9069 76.2941 16.8772C76.3181 16.8462 76.3489 16.8212 76.384 16.8039C76.4192 16.7866 76.4578 16.7776 76.497 16.7774H87.2079C87.3856 16.7776 87.5565 16.7089 87.6847 16.5858C87.8129 16.4628 87.8884 16.2948 87.8956 16.1172C87.8956 15.8903 87.8956 15.6565 87.8956 15.4536C87.8956 10.9251 84.8594 7.76172 80.5131 7.76172ZM84.543 14.061C84.5196 14.0926 84.4889 14.1181 84.4536 14.1354C84.4184 14.1527 84.3795 14.1614 84.3402 14.1607H76.5038C76.4645 14.1614 76.4256 14.1527 76.3904 14.1354C76.3551 14.1181 76.3244 14.0926 76.301 14.061C76.2776 14.0313 76.2612 13.9967 76.2528 13.9599C76.2445 13.923 76.2445 13.8847 76.2528 13.8478C76.748 11.9154 78.3778 10.7188 80.5131 10.7188C82.5762 10.7188 84.1132 11.8879 84.5912 13.8513C84.5997 13.8876 84.5998 13.9254 84.5915 13.9617C84.5831 13.9981 84.5665 14.0321 84.543 14.061Z" fill="#A1A3B0"/>
<path d="M80.5131 7.76172C76.1119 7.76172 72.9141 10.9973 72.9141 15.4536C72.9141 19.9649 76.1119 23.2384 80.5131 23.2384C83.4015 23.2384 85.7981 21.9764 87.0875 19.7792C87.1363 19.6937 87.1661 19.5987 87.175 19.5006C87.1839 19.4026 87.1717 19.3038 87.1391 19.2108C87.1065 19.1179 87.0543 19.0331 86.9861 18.9621C86.9179 18.8911 86.8352 18.8356 86.7437 18.7993L86.056 18.5483C85.7603 18.4451 85.4645 18.3385 85.186 18.2285C85.0469 18.1683 84.8913 18.1572 84.7451 18.1972C84.5988 18.2372 84.4706 18.3259 84.3814 18.4485C83.9499 19.0413 83.3792 19.5189 82.7196 19.8391C82.06 20.1593 81.3318 20.3123 80.5991 20.2847C78.4156 20.2847 76.748 19.0606 76.246 17.0903C76.2376 17.0535 76.2376 17.0152 76.246 16.9783C76.2543 16.9414 76.2707 16.9069 76.2941 16.8772C76.3181 16.8462 76.3489 16.8212 76.384 16.8039C76.4192 16.7866 76.4578 16.7776 76.497 16.7774H87.2079C87.3856 16.7776 87.5565 16.7089 87.6847 16.5858C87.8129 16.4628 87.8884 16.2948 87.8956 16.1172C87.8956 15.8903 87.8956 15.6565 87.8956 15.4536C87.8956 10.9251 84.8594 7.76172 80.5131 7.76172ZM84.543 14.061C84.5196 14.0926 84.4889 14.1181 84.4536 14.1354C84.4184 14.1527 84.3795 14.1614 84.3402 14.1607H76.5038C76.4645 14.1614 76.4256 14.1527 76.3904 14.1354C76.3551 14.1181 76.3244 14.0926 76.301 14.061C76.2776 14.0313 76.2612 13.9967 76.2528 13.9599C76.2445 13.923 76.2445 13.8847 76.2528 13.8478C76.748 11.9154 78.3778 10.7188 80.5131 10.7188C82.5762 10.7188 84.1132 11.8879 84.5912 13.8513C84.5997 13.8876 84.5998 13.9254 84.5915 13.9617C84.5831 13.9981 84.5665 14.0321 84.543 14.061Z" fill="#A1A3B0"/>
<path d="M104.387 8.07134H102.523C102.343 8.07129 102.171 8.14138 102.043 8.26665C101.914 8.39192 101.84 8.56246 101.835 8.74185V9.15791C101.836 9.2062 101.823 9.25367 101.796 9.29415C101.77 9.33462 101.732 9.36622 101.687 9.38485C101.644 9.4055 101.595 9.41229 101.548 9.40429C101.501 9.39629 101.457 9.3739 101.423 9.34015C100.189 8.27745 98.6046 7.71018 96.9766 7.74813C92.6097 7.74813 89.4395 10.9975 89.4395 15.471C89.4395 19.9444 92.6957 23.2557 96.9938 23.2557C98.6293 23.2683 100.212 22.6755 101.436 21.5915C101.472 21.5586 101.516 21.5368 101.563 21.5288C101.611 21.5207 101.66 21.5267 101.704 21.5461C101.748 21.5655 101.786 21.5973 101.812 21.6378C101.839 21.6782 101.853 21.7255 101.852 21.7737V22.2585C101.852 22.4409 101.925 22.6159 102.054 22.7448C102.183 22.8738 102.358 22.9462 102.54 22.9462H104.404C104.583 22.9418 104.754 22.8673 104.879 22.7388C105.004 22.6104 105.074 22.438 105.074 22.2585V8.74185C105.07 8.56246 104.995 8.39192 104.867 8.26665C104.738 8.14138 104.566 8.07129 104.387 8.07134ZM97.2414 20.0682C94.6832 20.0682 92.7507 18.0842 92.7507 15.4538C92.7507 12.8233 94.6385 10.9356 97.2414 10.9356C99.5177 10.9356 101.821 12.4864 101.821 15.4538C101.821 18.6241 99.4489 20.0682 97.2414 20.0682Z" fill="#A1A3B0"/>
<path d="M104.387 8.07134H102.523C102.343 8.07129 102.171 8.14138 102.043 8.26665C101.914 8.39192 101.84 8.56246 101.835 8.74185V9.15791C101.836 9.2062 101.823 9.25367 101.796 9.29415C101.77 9.33462 101.732 9.36622 101.687 9.38485C101.644 9.4055 101.595 9.41229 101.548 9.40429C101.501 9.39629 101.457 9.3739 101.423 9.34015C100.189 8.27745 98.6046 7.71018 96.9766 7.74813C92.6097 7.74813 89.4395 10.9975 89.4395 15.471C89.4395 19.9444 92.6957 23.2557 96.9938 23.2557C98.6293 23.2683 100.212 22.6755 101.436 21.5915C101.472 21.5586 101.516 21.5368 101.563 21.5288C101.611 21.5207 101.66 21.5267 101.704 21.5461C101.748 21.5655 101.786 21.5973 101.812 21.6378C101.839 21.6782 101.853 21.7255 101.852 21.7737V22.2585C101.852 22.4409 101.925 22.6159 102.054 22.7448C102.183 22.8738 102.358 22.9462 102.54 22.9462H104.404C104.583 22.9418 104.754 22.8673 104.879 22.7388C105.004 22.6104 105.074 22.438 105.074 22.2585V8.74185C105.07 8.56246 104.995 8.39192 104.867 8.26665C104.738 8.14138 104.566 8.07129 104.387 8.07134ZM97.2414 20.0682C94.6832 20.0682 92.7507 18.0842 92.7507 15.4538C92.7507 12.8233 94.6385 10.9356 97.2414 10.9356C99.5177 10.9356 101.821 12.4864 101.821 15.4538C101.821 18.6241 99.4489 20.0682 97.2414 20.0682Z" fill="#A1A3B0"/>
<path d="M115.376 7.76177C113.75 7.73629 112.175 8.33001 110.971 9.42256C110.935 9.45564 110.89 9.47762 110.842 9.48585C110.794 9.49409 110.744 9.48824 110.699 9.46901C110.654 9.44977 110.616 9.41797 110.588 9.37741C110.561 9.33685 110.546 9.28925 110.545 9.24032V8.74518C110.545 8.56573 110.475 8.39337 110.349 8.26489C110.224 8.1364 110.054 8.06197 109.874 8.05748H107.987C107.804 8.05748 107.629 8.12994 107.5 8.25891C107.371 8.38787 107.299 8.56279 107.299 8.74518V29.273C107.299 29.4554 107.371 29.6303 107.5 29.7592C107.629 29.8882 107.804 29.9607 107.987 29.9607H109.874C110.054 29.9562 110.224 29.8817 110.349 29.7533C110.475 29.6248 110.545 29.4524 110.545 29.273V21.8424C110.544 21.7932 110.558 21.7449 110.585 21.7038C110.612 21.6627 110.651 21.6307 110.696 21.612C110.741 21.5912 110.791 21.5847 110.839 21.5933C110.888 21.6019 110.933 21.6252 110.968 21.6601C112.187 22.7222 113.759 23.2911 115.376 23.2556C119.688 23.2556 122.82 20.02 122.82 15.5637C122.82 11.0352 119.688 7.76177 115.376 7.76177ZM115.097 20.0681C112.852 20.0681 110.576 18.5242 110.576 15.5775C110.576 12.3865 112.921 10.9355 115.097 10.9355C117.68 10.9355 119.567 12.8886 119.567 15.5775C119.567 18.2664 117.721 20.0681 115.097 20.0681Z" fill="#A1A3B0"/>
<path d="M115.376 7.76177C113.75 7.73629 112.175 8.33001 110.971 9.42256C110.935 9.45564 110.89 9.47762 110.842 9.48585C110.794 9.49409 110.744 9.48824 110.699 9.46901C110.654 9.44977 110.616 9.41797 110.588 9.37741C110.561 9.33685 110.546 9.28925 110.545 9.24032V8.74518C110.545 8.56573 110.475 8.39337 110.349 8.26489C110.224 8.1364 110.054 8.06197 109.874 8.05748H107.987C107.804 8.05748 107.629 8.12994 107.5 8.25891C107.371 8.38787 107.299 8.56279 107.299 8.74518V29.273C107.299 29.4554 107.371 29.6303 107.5 29.7592C107.629 29.8882 107.804 29.9607 107.987 29.9607H109.874C110.054 29.9562 110.224 29.8817 110.349 29.7533C110.475 29.6248 110.545 29.4524 110.545 29.273V21.8424C110.544 21.7932 110.558 21.7449 110.585 21.7038C110.612 21.6627 110.651 21.6307 110.696 21.612C110.741 21.5912 110.791 21.5847 110.839 21.5933C110.888 21.6019 110.933 21.6252 110.968 21.6601C112.187 22.7222 113.759 23.2911 115.376 23.2556C119.688 23.2556 122.82 20.02 122.82 15.5637C122.82 11.0352 119.688 7.76177 115.376 7.76177ZM115.097 20.0681C112.852 20.0681 110.576 18.5242 110.576 15.5775C110.576 12.3865 112.921 10.9355 115.097 10.9355C117.68 10.9355 119.567 12.8886 119.567 15.5775C119.567 18.2664 117.721 20.0681 115.097 20.0681Z" fill="#A1A3B0"/>
<path d="M46.1766 10.7121C46.0632 10.5608 45.9463 10.4164 45.8328 10.272C45.8018 10.2376 45.7709 10.1998 45.7365 10.1654C45.5223 9.92167 45.2926 9.69197 45.0488 9.47772C44.9418 9.37418 44.7988 9.31624 44.65 9.31611C44.5639 9.31233 44.4782 9.32906 44.3998 9.36493C44.3215 9.4008 44.2529 9.45479 44.1995 9.52242L42.9376 11.307C42.8678 11.4079 42.8317 11.5282 42.8344 11.6508C42.835 11.7308 42.8517 11.8098 42.8836 11.883C42.9155 11.9563 42.962 12.0224 43.0201 12.0772C43.3138 12.3497 43.5704 12.6595 43.7835 12.9987C44.132 13.5842 44.3524 14.237 44.4299 14.914C44.4299 15.0309 44.4505 15.1444 44.4505 15.2578V15.3472C44.451 15.9298 44.3365 16.5068 44.1138 17.0452C43.891 17.5836 43.5643 18.0727 43.1524 18.4847C42.7404 18.8967 42.2512 19.2234 41.7129 19.4462C41.1745 19.6689 40.5975 19.7833 40.0149 19.7829C39.3095 19.78 38.6148 19.611 37.987 19.2896C37.3591 18.9682 36.8158 18.5035 36.401 17.933L31.398 10.8772C30.4495 9.54502 29.1023 8.54865 27.5508 8.03187C25.9993 7.51509 24.3237 7.50462 22.7658 8.00198C21.2079 8.49933 19.8484 9.47878 18.8833 10.799C17.9182 12.1192 17.3976 13.7119 17.3965 15.3472C17.3963 15.6057 17.4101 15.8639 17.4377 16.1209C17.4362 16.1369 17.4362 16.153 17.4377 16.169C17.4653 16.4235 17.5065 16.6779 17.5547 16.9255C17.5547 16.9255 17.5547 16.9427 17.5547 16.953C17.8961 18.5655 18.7473 20.0254 19.9822 21.117C20.1002 21.2408 20.259 21.3177 20.4292 21.3336C20.5419 21.3286 20.6514 21.2947 20.7472 21.235C20.8429 21.1754 20.9217 21.0921 20.976 20.9932L22.1072 19.3943C22.1933 19.2858 22.2372 19.1498 22.2309 19.0114C22.2246 18.873 22.1684 18.7416 22.0728 18.6413C21.8679 18.4434 21.6804 18.2283 21.5124 17.9983C20.9684 17.2213 20.6767 16.2957 20.6768 15.3472C20.6662 14.7746 20.7706 14.2056 20.9838 13.6741C21.197 13.1425 21.5147 12.6591 21.9181 12.2526C22.3735 11.785 22.9261 11.4234 23.5369 11.1933C24.1477 10.9632 24.8016 10.8703 25.4523 10.9211C26.1029 10.972 26.7345 11.1654 27.3021 11.4876C27.8697 11.8098 28.3594 12.2529 28.7366 12.7855L33.7156 19.8173C34.3086 20.6471 35.0603 21.3512 35.9272 21.8887C36.7941 22.4262 37.759 22.7864 38.766 22.9487C39.773 23.1109 40.8022 23.0719 41.794 22.8338C42.7858 22.5958 43.7206 22.1634 44.5443 21.5618C45.368 20.9602 46.0642 20.2012 46.5927 19.3288C47.1212 18.4564 47.4715 17.4879 47.6233 16.4792C47.7751 15.4706 47.7254 14.4419 47.4771 13.4526C47.2288 12.4632 46.7868 11.533 46.1766 10.7156V10.7121Z" fill="#A1A3B0"/>
<path d="M41.7993 8.24318C41.8012 8.16665 41.7875 8.09054 41.7592 8.01941C41.7309 7.94829 41.6885 7.88364 41.6345 7.82935C41.5805 7.77506 41.5161 7.73225 41.4452 7.7035C41.3742 7.67476 41.2982 7.66066 41.2216 7.66208C40.6442 7.59356 40.0614 7.58204 39.4818 7.62769L39.1379 7.66552C38.0616 7.79178 37.0239 8.14294 36.0921 8.69622C35.1603 9.24949 34.3552 9.99252 33.7292 10.8771L28.7399 17.9122C28.3639 18.485 27.8547 18.9582 27.2559 19.2911C26.657 19.6241 25.9864 19.8069 25.3014 19.824H25.2567C25.1734 19.8286 25.0922 19.8513 25.0185 19.8905C24.9449 19.9297 24.8807 19.9844 24.8304 20.051L24.8028 20.0853L23.4275 22.0143C23.3722 22.0889 23.3357 22.1757 23.3212 22.2673C23.3066 22.359 23.3143 22.4528 23.3436 22.5409C23.373 22.6289 23.4231 22.7086 23.4898 22.7731C23.5564 22.8377 23.6377 22.8853 23.7266 22.9118H23.7575C24.5091 22.9894 25.2651 23.0136 26.0201 22.984C27.0953 22.8544 28.1316 22.5014 29.0625 21.9477C29.9933 21.3941 30.7982 20.652 31.4254 19.769L36.3802 12.7648C36.7671 12.2334 37.2648 11.7924 37.8389 11.4724C38.413 11.1524 39.0498 10.961 39.7053 10.9115H39.7293C39.8313 10.9111 39.9314 10.8838 40.0195 10.8325C40.1076 10.7812 40.1807 10.7077 40.2313 10.6192L41.679 8.55609C41.7493 8.46608 41.7912 8.35713 41.7993 8.24318Z" fill="#A1A3B0"/>
<path d="M14.9275 8.07137H13.0672C12.8848 8.07137 12.7099 8.14382 12.581 8.27279C12.452 8.40176 12.3795 8.57668 12.3795 8.75907V9.25765C12.3794 9.30658 12.365 9.35441 12.338 9.39525C12.3111 9.43609 12.2728 9.46816 12.2279 9.48752C12.1829 9.50689 12.1333 9.51269 12.0851 9.50423C12.0369 9.49577 11.9923 9.4734 11.9566 9.43989C10.7357 8.35404 9.15477 7.76087 7.52095 7.77566C3.24003 7.76191 0.000976562 11.1076 0.000976562 15.5466C0.000976562 19.9857 3.17126 23.2557 7.53815 23.2557C9.57717 23.2557 11.4168 22.4133 12.4242 21.0689C12.3417 25.0885 10.7291 27.0381 7.5072 27.0381C6.75806 27.0335 6.0215 26.8451 5.36207 26.4897C4.70264 26.1342 4.14048 25.6223 3.72486 24.9991C3.63401 24.8628 3.49619 24.7646 3.33766 24.7234C3.17913 24.6822 3.01097 24.7008 2.86524 24.7756C2.42511 24.9991 1.76148 25.3567 1.31448 25.6008C1.23137 25.6441 1.15799 25.704 1.09886 25.7767C1.03973 25.8495 0.996096 25.9335 0.970631 26.0237C0.943641 26.1109 0.935205 26.2027 0.945865 26.2933C0.956525 26.3839 0.986045 26.4713 1.03252 26.5498C1.70647 27.659 2.65832 28.573 3.79391 29.2014C4.92949 29.8298 6.20946 30.1508 7.5072 30.1327C12.8781 30.1327 15.6014 26.9005 15.6014 20.5221V8.74531C15.5979 8.56768 15.5258 8.39829 15.4001 8.27266C15.2745 8.14702 15.1051 8.07489 14.9275 8.07137ZM7.78572 20.0648C5.15871 20.0648 3.29505 18.1943 3.29505 15.5157C3.29505 12.9024 5.22748 10.9322 7.78572 10.9322C9.99323 10.9322 12.3795 12.366 12.3795 15.5157C12.3795 18.4694 10.007 20.0648 7.78572 20.0648Z" fill="#A1A3B0"/>
<path d="M64.029 0.217773H62.1653C61.9829 0.217773 61.808 0.290227 61.679 0.419195C61.5501 0.548164 61.4776 0.723082 61.4776 0.905471V9.11658C61.4782 9.16789 61.4634 9.21819 61.4353 9.26107C61.4071 9.30394 61.3668 9.33744 61.3194 9.35728C61.2716 9.37811 61.2186 9.38433 61.1672 9.37516C61.1158 9.36598 61.0683 9.34181 61.0306 9.3057C59.9647 8.32573 58.3452 7.76182 56.5846 7.76182C52.2522 7.76182 49.1094 11.0078 49.1094 15.4847C49.1094 19.9031 52.3381 23.2385 56.6156 23.2385C58.2368 23.253 59.8077 22.676 61.0341 21.6155C61.0718 21.5809 61.1187 21.5581 61.1691 21.5496C61.2196 21.5412 61.2714 21.5475 61.3183 21.5679C61.3652 21.5882 61.4052 21.6218 61.4335 21.6644C61.4618 21.707 61.4771 21.7569 61.4776 21.808V22.2447C61.4776 22.4271 61.5501 22.602 61.679 22.731C61.808 22.86 61.9829 22.9324 62.1653 22.9324H64.029C64.2114 22.9324 64.3863 22.86 64.5153 22.731C64.6442 22.602 64.7167 22.4271 64.7167 22.2447V0.905471C64.7167 0.723082 64.6442 0.548164 64.5153 0.419195C64.3863 0.290227 64.2114 0.217773 64.029 0.217773ZM61.4501 15.4537C61.4501 18.624 59.0741 20.0647 56.8666 20.0647C54.3256 20.0647 52.3966 18.0842 52.3966 15.4537C52.3966 12.8233 54.274 10.9321 56.8666 10.9321C59.1429 10.9321 61.4501 12.4863 61.4501 15.4537Z" fill="#A1A3B0"/>
<path d="M46.1732 10.7121C46.0598 10.5608 45.9429 10.4164 45.8294 10.272C45.7984 10.2376 45.7675 10.1998 45.7331 10.1654C45.5189 9.92162 45.2892 9.69192 45.0454 9.47767C44.9384 9.37413 44.7954 9.31619 44.6466 9.31606C44.5613 9.31242 44.4765 9.32889 44.3988 9.36413C44.3212 9.39938 44.2529 9.45241 44.1995 9.51893L42.9342 11.3069C42.8637 11.4075 42.8275 11.5281 42.831 11.6508C42.8311 11.7313 42.8476 11.811 42.8795 11.8849C42.9115 11.9588 42.9581 12.0254 43.0167 12.0806C43.3113 12.3522 43.5681 12.6621 43.7801 13.0021C44.1287 13.5876 44.349 14.2404 44.4265 14.9174C44.4265 15.0308 44.4471 15.1443 44.4471 15.2612V15.3472C44.4476 15.9295 44.3333 16.5062 44.1107 17.0444C43.8882 17.5825 43.5618 18.0715 43.1502 18.4834C42.7386 18.8954 42.2498 19.2222 41.7118 19.4451C41.1739 19.6681 40.5972 19.7828 40.0149 19.7828C39.309 19.7805 38.6136 19.6118 37.9851 19.2903C37.3566 18.9689 36.8127 18.5039 36.3976 17.9329L31.3946 10.8771C30.4466 9.54349 29.0992 8.54574 27.547 8.02802C25.9948 7.51029 24.3183 7.49941 22.7595 7.99693C21.2007 8.49445 19.8404 9.47462 18.8752 10.7958C17.91 12.1171 17.3897 13.7109 17.3896 15.3472C17.3896 15.6085 17.3896 15.8664 17.4309 16.1208C17.4309 16.1208 17.4309 16.1518 17.4309 16.169C17.4584 16.4234 17.4997 16.6779 17.5513 16.9254C17.5513 16.9254 17.5513 16.9426 17.5513 16.9529C17.8927 18.5654 18.7439 20.0253 19.9788 21.117C20.0986 21.2402 20.2582 21.317 20.4293 21.3336C20.5424 21.3303 20.6526 21.297 20.7486 21.2372C20.8447 21.1774 20.9231 21.0932 20.976 20.9932L22.1107 19.3943C22.1876 19.2958 22.231 19.1753 22.2345 19.0504C22.2346 18.9025 22.1765 18.7605 22.0729 18.655C21.868 18.4571 21.6805 18.242 21.5124 18.012C20.9653 17.231 20.6712 16.3008 20.67 15.3472C20.6599 14.7746 20.7646 14.2058 20.9778 13.6744C21.1909 13.1429 21.5083 12.6594 21.9113 12.2525C22.3274 11.8273 22.8236 11.4887 23.3713 11.2562C23.9189 11.0236 24.5072 10.9018 25.1022 10.8978C25.8119 10.9005 26.5108 11.0722 27.1411 11.3987C27.7713 11.7251 28.3147 12.197 28.7263 12.7752L33.6984 19.8172C34.2915 20.6471 35.0432 21.3511 35.9101 21.8886C36.777 22.4261 37.7418 22.7864 38.7488 22.9486C39.7558 23.1109 40.785 23.0718 41.7768 22.8338C42.7687 22.5957 43.7035 22.1634 44.5271 21.5618C45.3508 20.9601 46.047 20.2012 46.5755 19.3288C47.104 18.4564 47.4543 17.4878 47.6061 16.4792C47.7579 15.4705 47.7082 14.4418 47.4599 13.4525C47.2116 12.4632 46.7696 11.5329 46.1595 10.7155L46.1732 10.7121Z" fill="#A1A3B0"/>
<path d="M41.7992 8.23977C41.8001 8.1632 41.7857 8.08722 41.7568 8.0163C41.728 7.94538 41.6852 7.88095 41.6311 7.82681C41.5769 7.77266 41.5125 7.72989 41.4416 7.70102C41.3706 7.67214 41.2947 7.65774 41.2181 7.65866C40.6407 7.59014 40.0579 7.57862 39.4782 7.62428L39.1344 7.66554C38.0574 7.79113 37.0189 8.14198 36.0865 8.6953C35.154 9.24861 34.3485 9.99198 33.7222 10.8771L28.7364 17.926C28.3606 18.4992 27.8515 18.9729 27.2526 19.3064C26.6538 19.64 25.9831 19.8235 25.2979 19.8412H25.2532C25.1704 19.8458 25.0896 19.8686 25.0165 19.9078C24.9435 19.947 24.8799 20.0017 24.8303 20.0682C24.8198 20.0797 24.8105 20.0924 24.8027 20.106C24.5002 20.5324 23.8881 21.3989 23.4445 22.0315C23.369 22.1303 23.3279 22.2511 23.3276 22.3754C23.3308 22.495 23.3708 22.6107 23.4422 22.7067C23.5136 22.8027 23.6129 22.8743 23.7265 22.9118H23.7609C24.5122 22.993 25.2685 23.0171 26.0234 22.984C27.0987 22.8544 28.135 22.5014 29.0658 21.9478C29.9967 21.3941 30.8015 20.652 31.4287 19.769L36.3836 12.7648C36.7692 12.2322 37.2667 11.7904 37.841 11.4703C38.4154 11.1501 39.0528 10.9594 39.7086 10.9115H39.7327C39.8344 10.9118 39.9343 10.8852 40.0225 10.8345C40.1106 10.7838 40.1838 10.7107 40.2347 10.6226L41.6823 8.55955C41.7521 8.46691 41.7928 8.3556 41.7992 8.23977Z" fill="#A1A3B0"/>
<path d="M123.371 5.74H122.683V7.70338H122.411V5.74H121.724V5.53369H123.374L123.371 5.74ZM126.001 7.70338H125.733V5.76063L124.983 7.70338H124.808L124.062 5.76063V7.70338H123.787V5.53369H124.282L124.901 7.13603L125.506 5.53369H126.001V7.70338Z" fill="#A1A3B0"/>
</g>
<defs>
<clipPath id="clip0_77_169">
<rect width="126" height="29.9149" fill="white" transform="translate(0 0.217773)"/>
</clipPath>
</defs>
</svg>
