<svg width="100" height="34" viewBox="0 0 100 34" fill="none" xmlns="http://www.w3.org/2000/svg">
<g clip-path="url(#clip0_77_187)">
<path fill-rule="evenodd" clip-rule="evenodd" d="M34.1508 9.8274C29.3641 9.8274 25.932 13.5696 25.932 17.9368C25.932 22.3649 29.2602 26.1774 34.207 26.1774C38.6867 26.1774 42.3555 22.7555 42.3555 18.0211C42.3555 12.6008 38.0867 9.81958 34.1523 9.81958L34.1508 9.8274ZM52.0242 9.8274C47.243 9.8274 43.8133 13.5696 43.8133 17.9368C43.8133 22.3649 47.1414 26.1774 52.0891 26.1774C56.5578 26.1774 60.2297 22.7555 60.2297 18.0211C60.2297 12.6008 55.9641 9.81958 52.0266 9.81958L52.0312 9.8274H52.0242ZM79.782 25.7008H83.3836V1.59927H79.782V25.7008ZM69.875 13.0422C72.0312 13.0422 74.2422 14.8844 74.2422 18.0251C74.2422 21.2282 72.0344 22.9782 69.8266 22.9782C67.4828 22.9782 65.3055 21.0876 65.3055 18.0563C65.3055 14.9157 67.5711 13.0407 69.8758 13.0407L69.875 13.0422ZM34.1992 13.0422C36.5539 13.0422 38.7852 14.9469 38.7852 18.0094C38.7852 21.0251 36.5633 22.9782 34.1883 22.9782C31.5867 22.9782 29.5242 20.8946 29.5242 17.9938C29.5242 15.1657 31.5555 13.054 34.2039 13.054V13.0415L34.1992 13.0422ZM52.0727 13.0422C54.4266 13.0422 56.6586 14.9469 56.6586 18.0094C56.6586 21.0251 54.4359 22.9782 52.0617 22.9782C49.4523 22.9782 47.3898 20.8946 47.3898 17.9938C47.3898 15.1657 49.4211 13.054 52.0617 13.054L52.0695 13.0415L52.0727 13.0422ZM92.6305 9.82349C88.4875 9.82349 85.0055 13.1204 85.0055 17.9938C85.0055 23.1461 88.8852 26.1969 93.0305 26.1969C96.4758 26.1969 98.6008 24.3063 99.8664 22.611L97.0383 20.7305C96.3039 21.8711 95.0695 22.9805 93.0227 22.9805C90.7258 22.9805 89.6688 21.7227 89.0148 20.504L100 15.9407L99.4313 14.6079C98.3719 11.9985 95.9 9.81646 92.632 9.81646L92.6242 9.82427L92.6305 9.82349ZM24.5961 12.3391H12.9242V15.8063H21.2008C20.7945 20.6657 16.7531 22.736 12.9406 22.736C8.06328 22.736 3.80547 18.8969 3.80547 13.5172C3.80547 8.2774 7.85234 4.24224 12.9461 4.24224C16.868 4.24224 19.1805 6.74771 19.1805 6.74771L21.6023 4.23755C21.6023 4.23755 18.4922 0.768804 12.8125 0.768804C5.59219 0.762554 0 6.86255 0 13.4485C0 19.9016 5.25781 26.1985 12.9984 26.1985C19.8109 26.1985 24.7953 21.5344 24.7953 14.636C24.7953 13.1829 24.582 12.3391 24.582 12.3391H24.5961ZM92.7758 12.9641C94.2711 12.9641 95.3461 13.7594 95.8023 14.7126L88.482 17.7751C88.1656 15.411 90.4102 12.9743 92.7773 12.9743L92.7758 12.9641ZM69.5594 9.83912C65.1648 9.83912 61.7102 13.6969 61.7102 18.0094C61.7102 22.9313 65.7102 26.1969 69.4836 26.1969C71.8117 26.1969 73.0461 25.2751 73.968 24.2126V25.8219C73.968 28.6485 72.2492 30.336 69.6711 30.336C67.1711 30.336 65.9211 28.4766 65.4836 27.4258L62.3438 28.7376C63.4586 31.0969 65.7031 33.5563 69.6969 33.5563C74.0656 33.5563 77.3961 30.8032 77.3961 25.0329V10.3376H73.9688V11.7227C72.9141 10.5977 71.4734 9.84771 69.5594 9.84771V9.8399V9.83912Z" fill="#A1A3B0"/>
</g>
<defs>
<clipPath id="clip0_77_187">
<rect width="100" height="32.8125" fill="white" transform="translate(0 0.768799)"/>
</clipPath>
</defs>
</svg>
