<svg width="150" height="36" viewBox="0 0 150 36" fill="none" xmlns="http://www.w3.org/2000/svg">
<g clip-path="url(#clip0_77_163)">
<path d="M49.2442 12.2085C50.8552 12.2085 51.8633 12.8301 52.6893 13.6678L52.8422 13.8273C52.8673 13.8543 52.8923 13.8814 52.9172 13.9087V13.887C52.9172 13.0161 53.6395 12.2938 54.5314 12.2938C55.4229 12.2938 56.1445 13.0161 56.1445 13.9087V21.2415C56.1445 23.2827 55.6568 24.77 54.7009 25.7266C53.6395 26.7895 52.004 27.2569 49.7962 27.2569C48.288 27.2569 46.9713 27.002 45.6341 26.4702C45.0821 26.2584 44.7209 25.8115 44.7209 25.2161C44.7209 24.4938 45.3152 23.8991 46.0375 23.8991C46.2501 23.8991 46.4193 23.941 46.5682 24.005C47.5028 24.4302 48.5006 24.685 49.7113 24.685C51.9194 24.685 52.9602 23.6225 52.9602 21.5817V21.0289C52.004 22.1771 50.9643 22.8781 49.2442 22.8781C46.6255 22.8781 44.2544 20.9959 44.1908 17.7007L44.1895 17.5222C44.1895 14.1213 46.6319 12.2085 49.2442 12.2085ZM50.1784 14.8863C48.6386 14.8863 47.4655 15.9272 47.4192 17.4296L47.4178 17.5645C47.4178 19.1371 48.6072 20.2 50.1784 20.2C51.7181 20.2 52.9117 19.1594 52.9588 17.657L52.9602 17.5222C52.9602 15.9701 51.7495 14.8863 50.1784 14.8863ZM69.97 12.2938C71.732 12.2938 73.0064 12.7613 73.8129 13.5685C74.6625 14.4181 75.0454 15.6733 75.0454 17.2037V22.389C75.0454 23.261 74.3444 23.941 73.4735 23.941C72.5685 23.941 71.9624 23.3232 71.9254 22.6657L71.9236 22.5802C71.1377 23.4522 70.055 24.0256 68.4831 24.0256C66.3747 24.0256 64.635 22.8343 64.5776 20.652L64.5762 20.4979C64.5762 18.0109 66.4654 16.8627 69.1631 16.8627C70.3095 16.8627 71.1377 17.054 71.945 17.3302V17.1393C71.945 15.8006 71.1164 15.0562 69.5029 15.0562C68.6111 15.0562 67.8887 15.1842 67.2731 15.3754C67.0822 15.4391 66.955 15.4608 66.806 15.4608C66.0631 15.4608 65.468 14.8863 65.468 14.1419C65.468 13.5685 65.8285 13.0798 66.3389 12.8878C67.358 12.5057 68.4625 12.2938 69.97 12.2938ZM63.3871 12.2938C64.3853 12.2938 64.9583 12.9521 64.9583 13.8657C64.9583 14.6867 64.4433 15.1909 63.8159 15.3587L63.7483 15.3754C62.1124 15.7583 61.1992 17.0117 61.1992 19.3074V22.3254C61.1992 23.218 60.4776 23.941 59.5861 23.941C58.6935 23.941 57.972 23.218 57.972 22.3254V13.9087C57.972 13.0161 58.6935 12.2938 59.5861 12.2938C60.4776 12.2938 61.1992 13.0161 61.1992 13.9087V14.4181C61.667 13.3137 62.4309 12.2938 63.3871 12.2938ZM69.927 18.7973C68.5467 18.7973 67.6979 19.3497 67.6979 20.3706V20.4129C67.6979 21.2845 68.4202 21.7943 69.4599 21.7943C70.9682 21.7943 71.9873 20.9653 71.9873 19.7965V19.2224C71.4352 18.9675 70.7137 18.7973 69.927 18.7973ZM90.292 12.2085C92.6921 12.2085 94.136 13.6539 94.136 16.3964V22.3254C94.136 23.218 93.4137 23.941 92.5218 23.941C91.63 23.941 90.9076 23.218 90.9076 22.3254V17.4585C90.9076 15.9278 90.2284 15.1412 89.0184 15.1412C87.8076 15.1412 87.0647 15.9278 87.0647 17.4585V22.3254C87.0647 23.218 86.3431 23.941 85.4505 23.941C84.5587 23.941 83.8364 23.218 83.8364 22.3254V17.4585C83.8364 15.9278 83.1578 15.1412 81.9471 15.1412C80.7364 15.1412 79.9942 15.9278 79.9942 17.4585V22.3254C79.9942 23.218 79.2719 23.941 78.38 23.941C77.4874 23.941 76.7658 23.218 76.7658 22.3254V13.9087C76.7658 13.0161 77.4874 12.2938 78.38 12.2938C79.2719 12.2938 79.9942 13.0161 79.9942 13.9087V14.0367C80.7364 13.0798 81.7139 12.2085 83.3487 12.2085C84.8349 12.2085 85.9607 12.8672 86.5546 14.0154C87.5531 12.8462 88.7425 12.2085 90.292 12.2085ZM109.404 12.2085C111.804 12.2085 113.248 13.6539 113.248 16.3964V22.3254C113.248 23.218 112.527 23.941 111.634 23.941C110.742 23.941 110.02 23.218 110.02 22.3254V17.4585C110.02 15.9278 109.341 15.1412 108.131 15.1412C106.92 15.1412 106.177 15.9278 106.177 17.4585V22.3254C106.177 23.218 105.456 23.941 104.563 23.941C103.671 23.941 102.949 23.218 102.949 22.3254V17.4585C102.949 15.9278 102.27 15.1412 101.059 15.1412C99.8487 15.1412 99.1062 15.9278 99.1062 17.4585V22.3254C99.1062 23.218 98.3839 23.941 97.4924 23.941C96.5998 23.941 95.8782 23.218 95.8782 22.3254V13.9087C95.8782 13.0161 96.5998 12.2938 97.4924 12.2938C98.3839 12.2938 99.1062 13.0161 99.1062 13.9087V14.0367C99.8487 13.0798 100.826 12.2085 102.461 12.2085C103.947 12.2085 105.073 12.8672 105.667 14.0154C106.665 12.8462 107.855 12.2085 109.404 12.2085ZM119.705 12.2938C121.467 12.2938 122.741 12.7613 123.548 13.5685C124.397 14.4181 124.779 15.6733 124.779 17.2037V22.389C124.779 23.261 124.079 23.941 123.209 23.941C122.303 23.941 121.697 23.3232 121.66 22.6657L121.658 22.5802C120.872 23.4522 119.789 24.0256 118.219 24.0256C116.109 24.0256 114.37 22.8343 114.312 20.652L114.311 20.4979C114.311 18.0109 116.201 16.8627 118.897 16.8627C120.044 16.8627 120.872 17.054 121.679 17.3302V17.1393C121.679 15.8006 120.852 15.0562 119.237 15.0562C118.345 15.0562 117.623 15.1842 117.008 15.3754C116.817 15.4391 116.69 15.4608 116.541 15.4608C115.797 15.4608 115.203 14.8863 115.203 14.1419C115.203 13.5685 115.564 13.0798 116.073 12.8878C117.093 12.5057 118.197 12.2938 119.705 12.2938ZM119.662 18.7973C118.281 18.7973 117.433 19.3497 117.433 20.3706V20.4129C117.433 21.2845 118.154 21.7943 119.195 21.7943C120.702 21.7943 121.722 20.9653 121.722 19.7965V19.2224C121.17 18.9675 120.448 18.7973 119.662 18.7973ZM131.916 12.2938C132.913 12.2938 133.486 12.9521 133.486 13.8657C133.486 14.6867 132.972 15.1909 132.344 15.3587L132.276 15.3754C130.641 15.7583 129.728 17.0117 129.728 19.3074V22.3254C129.728 23.218 129.007 23.941 128.114 23.941C127.222 23.941 126.5 23.218 126.5 22.3254V13.9087C126.5 13.0161 127.222 12.2938 128.114 12.2938C129.007 12.2938 129.728 13.0161 129.728 13.9087V14.4181C130.195 13.3137 130.959 12.2938 131.916 12.2938ZM136.077 8.16992C136.97 8.16992 137.692 8.89187 137.692 9.78447V22.3254C137.692 23.218 136.97 23.941 136.077 23.941C135.185 23.941 134.464 23.218 134.464 22.3254V9.78447C134.464 8.89187 135.185 8.16992 136.077 8.16992ZM148.458 12.2938C149.286 12.2938 149.986 12.9308 149.986 13.7811C149.986 14.0367 149.902 14.3975 149.838 14.5465L145.867 24.09C144.911 26.4066 143.956 27.2782 142.024 27.2782C141.301 27.2782 140.792 27.1723 140.261 26.9807C139.794 26.8108 139.241 26.4279 139.241 25.642C139.241 24.8553 139.858 24.3235 140.516 24.3235C140.714 24.3235 140.848 24.3493 140.958 24.3807L141.047 24.4085C141.323 24.4938 141.493 24.5368 141.727 24.5368C142.3 24.5368 142.576 24.4302 142.873 23.8561L142.979 23.6012L139.094 14.5888C139.009 14.3762 138.923 14.0577 138.923 13.8447C138.923 12.9308 139.624 12.2938 140.516 12.2938C141.294 12.2938 141.756 12.7083 142.035 13.4235L144.529 20.1363L146.907 13.5255C147.163 12.8462 147.629 12.2938 148.458 12.2938Z" fill="#A1A3B0"/>
<path d="M17.6224 0.450684C27.363 0.450684 35.2585 8.35388 35.2585 18.1041C35.2585 27.5546 27.8398 35.271 18.5131 35.7353H16.7318C7.4057 35.271 -0.0136719 27.5545 -0.0136719 18.1041C-0.0136719 8.35388 7.88254 0.450684 17.6224 0.450684Z" fill="#A1A3B0"/>
<path d="M16.9251 7.75424C20.8853 7.4887 24.4072 9.44822 26.3671 12.5107C26.6771 13.0451 26.5267 13.7244 26.0114 14.0819C25.4686 14.4588 24.7544 14.2926 24.3461 13.7174C22.9302 11.7226 20.4583 10.0723 17.6404 10.0723C12.2337 10.0723 8.08479 15.5019 10.2639 21.1885C11.2238 23.6938 13.4989 25.4874 16.1476 25.9037C19.401 26.4146 22.3767 25.2565 24.0905 22.7397L23.0195 22.8902H21.1715C20.5848 22.8902 20.042 22.4941 19.9376 21.9163C19.8004 21.1579 20.3793 20.497 21.1122 20.497H27.601V27.3098C27.601 28.0435 26.9415 28.6231 26.1832 28.4863C25.6058 28.3818 25.2108 27.8379 25.2108 27.2513V26.1137L25.4355 24.8552C23.5377 27.0494 20.7518 28.4057 17.6404 28.4057C11.717 28.4057 6.95423 23.4988 7.29884 17.489C7.59527 12.3243 11.7685 8.10068 16.9251 7.75424Z" fill="white"/>
</g>
<defs>
<clipPath id="clip0_77_163">
<rect width="150" height="35.4492" fill="white" transform="translate(0 0.450439)"/>
</clipPath>
</defs>
</svg>
