<svg width="95" height="82" viewBox="0 0 95 82" fill="none" xmlns="http://www.w3.org/2000/svg">
<circle cx="1.54225" cy="1.54225" r="1.54225" transform="matrix(1 0 0 -1 0 81.5916)" fill="white" fill-opacity="0.1"/>
<circle cx="1.54225" cy="1.54225" r="1.54225" transform="matrix(1 0 0 -1 13.0845 81.5916)" fill="white" fill-opacity="0.1"/>
<circle cx="1.54225" cy="1.54225" r="1.54225" transform="matrix(1 0 0 -1 26.1689 81.5916)" fill="white" fill-opacity="0.1"/>
<circle cx="1.54225" cy="1.54225" r="1.54225" transform="matrix(1 0 0 -1 39.2534 81.5916)" fill="white" fill-opacity="0.1"/>
<circle cx="1.54225" cy="1.54225" r="1.54225" transform="matrix(1 0 0 -1 0 68.5071)" fill="white" fill-opacity="0.1"/>
<circle cx="1.54225" cy="1.54225" r="1.54225" transform="matrix(1 0 0 -1 13.0845 68.5071)" fill="white" fill-opacity="0.1"/>
<circle cx="1.54225" cy="1.54225" r="1.54225" transform="matrix(1 0 0 -1 26.1689 68.5071)" fill="white" fill-opacity="0.1"/>
<circle cx="1.54225" cy="1.54225" r="1.54225" transform="matrix(1 0 0 -1 39.2534 68.5071)" fill="white" fill-opacity="0.1"/>
<circle cx="1.54225" cy="1.54225" r="1.54225" transform="matrix(1 0 0 -1 0 55.4226)" fill="white" fill-opacity="0.1"/>
<circle cx="1.54225" cy="1.54225" r="1.54225" transform="matrix(1 0 0 -1 13.0845 55.4226)" fill="white" fill-opacity="0.1"/>
<circle cx="1.54225" cy="1.54225" r="1.54225" transform="matrix(1 0 0 -1 26.1689 55.4226)" fill="white" fill-opacity="0.1"/>
<circle cx="1.54225" cy="1.54225" r="1.54225" transform="matrix(1 0 0 -1 39.2534 55.4226)" fill="white" fill-opacity="0.1"/>
<circle cx="1.54225" cy="1.54225" r="1.54225" transform="matrix(1 0 0 -1 0 42.3381)" fill="white" fill-opacity="0.1"/>
<circle cx="1.54225" cy="1.54225" r="1.54225" transform="matrix(1 0 0 -1 13.0845 42.3381)" fill="white" fill-opacity="0.1"/>
<circle cx="1.54225" cy="1.54225" r="1.54225" transform="matrix(1 0 0 -1 26.1689 42.3381)" fill="white" fill-opacity="0.1"/>
<circle cx="1.54225" cy="1.54225" r="1.54225" transform="matrix(1 0 0 -1 39.2534 42.3381)" fill="white" fill-opacity="0.1"/>
<circle cx="1.54225" cy="1.54225" r="1.54225" transform="matrix(1 0 0 -1 52.3379 42.3381)" fill="white" fill-opacity="0.1"/>
<circle cx="1.54225" cy="1.54225" r="1.54225" transform="matrix(1 0 0 -1 65.4224 42.3381)" fill="white" fill-opacity="0.1"/>
<circle cx="1.54225" cy="1.54225" r="1.54225" transform="matrix(1 0 0 -1 78.5068 42.3381)" fill="white" fill-opacity="0.1"/>
<circle cx="1.54225" cy="1.54225" r="1.54225" transform="matrix(1 0 0 -1 91.5913 42.3381)" fill="white" fill-opacity="0.1"/>
<circle cx="1.54225" cy="1.54225" r="1.54225" transform="matrix(1 0 0 -1 0 29.2534)" fill="white" fill-opacity="0.1"/>
<circle cx="1.54225" cy="1.54225" r="1.54225" transform="matrix(1 0 0 -1 13.0845 29.2534)" fill="white" fill-opacity="0.1"/>
<circle cx="1.54225" cy="1.54225" r="1.54225" transform="matrix(1 0 0 -1 26.1689 29.2534)" fill="white" fill-opacity="0.1"/>
<circle cx="1.54225" cy="1.54225" r="1.54225" transform="matrix(1 0 0 -1 39.2534 29.2534)" fill="white" fill-opacity="0.1"/>
<circle cx="1.54225" cy="1.54225" r="1.54225" transform="matrix(1 0 0 -1 52.3379 29.2534)" fill="white" fill-opacity="0.1"/>
<circle cx="1.54225" cy="1.54225" r="1.54225" transform="matrix(1 0 0 -1 65.4224 29.2534)" fill="white" fill-opacity="0.1"/>
<circle cx="1.54225" cy="1.54225" r="1.54225" transform="matrix(1 0 0 -1 78.5068 29.2534)" fill="white" fill-opacity="0.1"/>
<circle cx="1.54225" cy="1.54225" r="1.54225" transform="matrix(1 0 0 -1 91.5913 29.2534)" fill="white" fill-opacity="0.1"/>
<circle cx="1.54225" cy="1.54225" r="1.54225" transform="matrix(1 0 0 -1 0 16.1689)" fill="white" fill-opacity="0.1"/>
<circle cx="1.54225" cy="1.54225" r="1.54225" transform="matrix(1 0 0 -1 13.0845 16.1689)" fill="white" fill-opacity="0.1"/>
<circle cx="1.54225" cy="1.54225" r="1.54225" transform="matrix(1 0 0 -1 26.1689 16.1689)" fill="white" fill-opacity="0.1"/>
<circle cx="1.54225" cy="1.54225" r="1.54225" transform="matrix(1 0 0 -1 39.2534 16.1689)" fill="white" fill-opacity="0.1"/>
<circle cx="1.54225" cy="1.54225" r="1.54225" transform="matrix(1 0 0 -1 52.3379 16.1689)" fill="white" fill-opacity="0.1"/>
<circle cx="1.54225" cy="1.54225" r="1.54225" transform="matrix(1 0 0 -1 65.4224 16.1689)" fill="white" fill-opacity="0.1"/>
<circle cx="1.54225" cy="1.54225" r="1.54225" transform="matrix(1 0 0 -1 78.5068 16.1689)" fill="white" fill-opacity="0.1"/>
<circle cx="1.54225" cy="1.54225" r="1.54225" transform="matrix(1 0 0 -1 91.5913 16.1689)" fill="white" fill-opacity="0.1"/>
<circle cx="1.54225" cy="1.54225" r="1.54225" transform="matrix(1 0 0 -1 0 3.08447)" fill="white" fill-opacity="0.1"/>
<circle cx="1.54225" cy="1.54225" r="1.54225" transform="matrix(1 0 0 -1 13.0845 3.08447)" fill="white" fill-opacity="0.1"/>
<circle cx="1.54225" cy="1.54225" r="1.54225" transform="matrix(1 0 0 -1 26.1689 3.08447)" fill="white" fill-opacity="0.1"/>
<circle cx="1.54225" cy="1.54225" r="1.54225" transform="matrix(1 0 0 -1 39.2534 3.08447)" fill="white" fill-opacity="0.1"/>
<circle cx="1.54225" cy="1.54225" r="1.54225" transform="matrix(1 0 0 -1 52.3379 3.08447)" fill="white" fill-opacity="0.1"/>
<circle cx="1.54225" cy="1.54225" r="1.54225" transform="matrix(1 0 0 -1 65.4224 3.08447)" fill="white" fill-opacity="0.1"/>
<circle cx="1.54225" cy="1.54225" r="1.54225" transform="matrix(1 0 0 -1 78.5068 3.08447)" fill="white" fill-opacity="0.1"/>
<circle cx="1.54225" cy="1.54225" r="1.54225" transform="matrix(1 0 0 -1 91.5913 3.08447)" fill="white" fill-opacity="0.1"/>
</svg>
