<svg width="96" height="82" viewBox="0 0 96 82" fill="none" xmlns="http://www.w3.org/2000/svg">
<circle cx="93.8103" cy="80.0493" r="1.54225" transform="rotate(180 93.8103 80.0493)" fill="white" fill-opacity="0.1"/>
<circle cx="80.7258" cy="80.0493" r="1.54225" transform="rotate(180 80.7258 80.0493)" fill="white" fill-opacity="0.1"/>
<circle cx="67.6413" cy="80.0493" r="1.54225" transform="rotate(180 67.6413 80.0493)" fill="white" fill-opacity="0.1"/>
<circle cx="54.5569" cy="80.0493" r="1.54225" transform="rotate(180 54.5569 80.0493)" fill="white" fill-opacity="0.1"/>
<circle cx="93.8103" cy="66.9648" r="1.54225" transform="rotate(180 93.8103 66.9648)" fill="white" fill-opacity="0.1"/>
<circle cx="80.7258" cy="66.9648" r="1.54225" transform="rotate(180 80.7258 66.9648)" fill="white" fill-opacity="0.1"/>
<circle cx="67.6413" cy="66.9648" r="1.54225" transform="rotate(180 67.6413 66.9648)" fill="white" fill-opacity="0.1"/>
<circle cx="54.5569" cy="66.9648" r="1.54225" transform="rotate(180 54.5569 66.9648)" fill="white" fill-opacity="0.1"/>
<circle cx="93.8103" cy="53.8804" r="1.54225" transform="rotate(180 93.8103 53.8804)" fill="white" fill-opacity="0.1"/>
<circle cx="80.7258" cy="53.8804" r="1.54225" transform="rotate(180 80.7258 53.8804)" fill="white" fill-opacity="0.1"/>
<circle cx="67.6413" cy="53.8804" r="1.54225" transform="rotate(180 67.6413 53.8804)" fill="white" fill-opacity="0.1"/>
<circle cx="54.5569" cy="53.8804" r="1.54225" transform="rotate(180 54.5569 53.8804)" fill="white" fill-opacity="0.1"/>
<circle cx="93.8103" cy="40.7959" r="1.54225" transform="rotate(180 93.8103 40.7959)" fill="white" fill-opacity="0.1"/>
<circle cx="80.7258" cy="40.7959" r="1.54225" transform="rotate(180 80.7258 40.7959)" fill="white" fill-opacity="0.1"/>
<circle cx="67.6413" cy="40.7959" r="1.54225" transform="rotate(180 67.6413 40.7959)" fill="white" fill-opacity="0.1"/>
<circle cx="54.5569" cy="40.7959" r="1.54225" transform="rotate(180 54.5569 40.7959)" fill="white" fill-opacity="0.1"/>
<circle cx="41.4724" cy="40.7959" r="1.54225" transform="rotate(180 41.4724 40.7959)" fill="white" fill-opacity="0.1"/>
<circle cx="28.3879" cy="40.7959" r="1.54225" transform="rotate(180 28.3879 40.7959)" fill="white" fill-opacity="0.1"/>
<circle cx="15.3034" cy="40.7959" r="1.54225" transform="rotate(180 15.3034 40.7959)" fill="white" fill-opacity="0.1"/>
<circle cx="2.21898" cy="40.7959" r="1.54225" transform="rotate(180 2.21898 40.7959)" fill="white" fill-opacity="0.1"/>
<circle cx="93.8103" cy="27.7112" r="1.54225" transform="rotate(180 93.8103 27.7112)" fill="white" fill-opacity="0.1"/>
<circle cx="80.7258" cy="27.7112" r="1.54225" transform="rotate(180 80.7258 27.7112)" fill="white" fill-opacity="0.1"/>
<circle cx="67.6413" cy="27.7112" r="1.54225" transform="rotate(180 67.6413 27.7112)" fill="white" fill-opacity="0.1"/>
<circle cx="54.5569" cy="27.7112" r="1.54225" transform="rotate(180 54.5569 27.7112)" fill="white" fill-opacity="0.1"/>
<circle cx="41.4724" cy="27.7112" r="1.54225" transform="rotate(180 41.4724 27.7112)" fill="white" fill-opacity="0.1"/>
<circle cx="28.3879" cy="27.7112" r="1.54225" transform="rotate(180 28.3879 27.7112)" fill="white" fill-opacity="0.1"/>
<circle cx="15.3034" cy="27.7112" r="1.54225" transform="rotate(180 15.3034 27.7112)" fill="white" fill-opacity="0.1"/>
<circle cx="2.21898" cy="27.7112" r="1.54225" transform="rotate(180 2.21898 27.7112)" fill="white" fill-opacity="0.1"/>
<circle cx="93.8103" cy="14.6267" r="1.54225" transform="rotate(180 93.8103 14.6267)" fill="white" fill-opacity="0.1"/>
<circle cx="80.7258" cy="14.6267" r="1.54225" transform="rotate(180 80.7258 14.6267)" fill="white" fill-opacity="0.1"/>
<circle cx="67.6413" cy="14.6267" r="1.54225" transform="rotate(180 67.6413 14.6267)" fill="white" fill-opacity="0.1"/>
<circle cx="54.5569" cy="14.6267" r="1.54225" transform="rotate(180 54.5569 14.6267)" fill="white" fill-opacity="0.1"/>
<circle cx="41.4724" cy="14.6267" r="1.54225" transform="rotate(180 41.4724 14.6267)" fill="white" fill-opacity="0.1"/>
<circle cx="28.3879" cy="14.6267" r="1.54225" transform="rotate(180 28.3879 14.6267)" fill="white" fill-opacity="0.1"/>
<circle cx="15.3034" cy="14.6267" r="1.54225" transform="rotate(180 15.3034 14.6267)" fill="white" fill-opacity="0.1"/>
<circle cx="2.21898" cy="14.6267" r="1.54225" transform="rotate(180 2.21898 14.6267)" fill="white" fill-opacity="0.1"/>
<circle cx="93.8103" cy="1.54222" r="1.54225" transform="rotate(180 93.8103 1.54222)" fill="white" fill-opacity="0.1"/>
<circle cx="80.7258" cy="1.54222" r="1.54225" transform="rotate(180 80.7258 1.54222)" fill="white" fill-opacity="0.1"/>
<circle cx="67.6413" cy="1.54222" r="1.54225" transform="rotate(180 67.6413 1.54222)" fill="white" fill-opacity="0.1"/>
<circle cx="54.5569" cy="1.54222" r="1.54225" transform="rotate(180 54.5569 1.54222)" fill="white" fill-opacity="0.1"/>
<circle cx="41.4724" cy="1.54222" r="1.54225" transform="rotate(180 41.4724 1.54222)" fill="white" fill-opacity="0.1"/>
<circle cx="28.3879" cy="1.54222" r="1.54225" transform="rotate(180 28.3879 1.54222)" fill="white" fill-opacity="0.1"/>
<circle cx="15.3034" cy="1.54222" r="1.54225" transform="rotate(180 15.3034 1.54222)" fill="white" fill-opacity="0.1"/>
<circle cx="2.21898" cy="1.54222" r="1.54225" transform="rotate(180 2.21898 1.54222)" fill="white" fill-opacity="0.1"/>
</svg>
