<svg width="152" height="23" viewBox="0 0 152 23" fill="none" xmlns="http://www.w3.org/2000/svg">
<path d="M8.41126 2.57837H19.1587L11.2572 14.29H0.509766L8.41126 2.57837Z" fill="#1F253F"/>
<path d="M8.88221 15.3756L5.82178 19.9118H17.079L24.9805 8.2002H16.672L11.8309 15.3756H8.88221Z" fill="#1F253F"/>
<path d="M46.5722 17.5H42.9722L38.5982 5.44H41.6402L44.7182 14.476H44.8982L47.9222 5.44H50.9462L46.5722 17.5ZM60.8038 17.5H51.6058V5.44H60.8038V7.87H54.3058V10.228H60.5338V12.64H54.3058V15.07H60.8038V17.5ZM64.923 17.5H62.223V5.44H65.103L69.009 11.488L70.017 13.108H70.197L70.161 11.488V5.44H72.861V17.5H69.981L66.237 11.794L65.067 9.94H64.887L64.923 11.794V17.5ZM80.0595 17.5H77.3595V7.87H73.4715V5.44H83.9475V7.87H80.0595V17.5ZM89.8542 17.68C86.3082 17.68 84.6702 16.24 84.6702 13.576V13.342H87.3162V13.522C87.3162 14.854 87.8022 15.232 89.9802 15.232C91.5102 15.232 91.8882 14.926 91.8882 14.116C91.8882 13.306 91.7082 13.018 90.0162 12.73L87.8922 12.352C85.5882 11.956 84.6162 10.786 84.6162 8.914C84.6162 7.078 85.9662 5.26 89.4222 5.26C92.8602 5.26 94.3002 7.042 94.3002 9.436V9.58H91.6362V9.382C91.6362 8.122 91.1142 7.708 89.3322 7.708C87.7842 7.708 87.2982 8.05 87.2982 8.806C87.2982 9.58 87.6222 9.76 89.0262 10.03L91.1682 10.444C93.7062 10.93 94.5702 12.262 94.5702 14.026C94.5702 15.952 93.2742 17.68 89.8542 17.68ZM98.3565 17.5H95.6565V5.44H101.201C103.793 5.44 105.647 7.006 105.647 9.688C105.647 12.388 103.793 13.918 101.201 13.918H98.3565V17.5ZM101.309 7.87H98.3565V11.506H101.309C102.551 11.506 102.965 11.128 102.965 9.688C102.965 8.23 102.551 7.87 101.309 7.87ZM109.431 17.5H106.731V5.44H109.431V10.228H114.687V5.44H117.387V17.5H114.687V12.64H109.431V17.5ZM128.321 17.5H119.123V5.44H128.321V7.87H121.823V10.228H128.051V12.64H121.823V15.07H128.321V17.5ZM132.441 17.5H129.741V5.44H135.285C138.165 5.44 139.767 6.772 139.767 9.112C139.767 11.074 138.795 12.244 136.725 12.424V12.604C137.769 12.928 138.273 13.558 138.741 14.476L140.271 17.5H137.121L135.699 14.71C135.159 13.666 134.799 13.216 133.521 13.216H132.441V17.5ZM132.441 7.87V10.984H135.411C136.671 10.984 137.085 10.606 137.085 9.418C137.085 8.266 136.671 7.87 135.411 7.87H132.441ZM150.241 17.5H141.043V5.44H150.241V7.87H143.743V10.228H149.971V12.64H143.743V15.07H150.241V17.5Z" fill="#1F253F"/>
</svg>
