<svg width="110" height="34" viewBox="0 0 110 34" fill="none" xmlns="http://www.w3.org/2000/svg">
<g clip-path="url(#clip0_77_189)">
<path d="M56.6533 12.2626C61.7067 12.2626 65.3036 16.1077 65.3036 20.9908C65.3036 25.9525 61.6684 29.7102 56.6533 29.7102C51.6362 29.7102 48.003 25.9889 48.003 20.9908C48.003 16.0723 51.6245 12.2626 56.6533 12.2626ZM74.8166 12.2626C79.87 12.2626 83.4669 16.1077 83.4669 20.9908C83.4669 25.9525 79.8298 29.7102 74.8166 29.7102C69.7995 29.7102 66.1663 25.9889 66.1663 20.9908C66.1663 16.0723 69.7877 12.2626 74.8166 12.2626ZM104.04 12.2794C107.087 12.2794 110 14.1224 110 18.5444V29.2326H105.68V19.4497C105.68 17.6736 104.809 16.3339 102.766 16.3339C100.857 16.3339 99.7179 17.8082 99.7179 19.5844V29.2336H95.2988V19.4497C95.2988 17.6736 94.3949 16.3339 92.3846 16.3339C90.442 16.3339 89.3031 17.7748 89.3031 19.5844V29.2336H84.8506V12.7482H89.1035V14.7593C90.0073 13.1512 92.1179 12.2794 93.9257 12.2794C96.1703 12.2794 97.978 13.2515 98.815 15.0266C100.12 13.0156 101.863 12.2794 104.04 12.2794ZM46.5888 4.97534V29.2326H42.1353V4.97534H46.5888ZM74.8166 16.2414C72.1994 16.2414 70.07 18.3723 70.07 20.9897C70.07 23.6073 72.1994 25.7383 74.8166 25.7383C77.4337 25.7383 79.5632 23.6073 79.5632 20.9897C79.5622 18.3723 77.4328 16.2414 74.8166 16.2414ZM56.6533 16.2974C54.0656 16.2974 51.9608 18.4027 51.9608 20.9918C51.9608 23.5808 54.0656 25.6862 56.6533 25.6862C59.241 25.6862 61.3449 23.5808 61.3449 20.9918C61.3449 18.4027 59.241 16.2974 56.6533 16.2974Z" fill="#A1A3B0"/>
<path d="M33.1593 15.2605H23.4631L31.8605 10.4122L30.0164 7.2172L21.6189 12.0654L26.4661 3.66868L23.271 1.82346L18.4239 10.2202V0.524658H14.7354V10.2211L9.88639 1.82346L6.69235 3.66776L11.5405 12.0645L3.14301 7.2172L1.29877 10.4113L9.69621 15.2596H0V18.9482H9.69528L1.29877 23.7964L3.14301 26.9915L11.5395 22.1441L6.69143 30.5408L9.88639 32.3851L14.7345 23.9875V33.684H18.423V23.9884L23.2702 32.3851L26.4651 30.5408L21.617 22.1432L30.0144 26.9915L31.8587 23.7964L23.4622 18.949H33.1574V15.2605H33.1593ZM16.5797 22.1209C13.7985 22.1209 11.5442 19.8666 11.5442 17.0853C11.5442 14.304 13.7985 12.0497 16.5797 12.0497C19.3609 12.0497 21.6151 14.304 21.6151 17.0853C21.6151 19.8666 19.3609 22.1209 16.5797 22.1209Z" fill="#A1A3B0"/>
</g>
<defs>
<clipPath id="clip0_77_189">
<rect width="110" height="33.3008" fill="white" transform="translate(0 0.524658)"/>
</clipPath>
</defs>
</svg>
