<svg width="96" height="39" viewBox="0 0 96 39" fill="none" xmlns="http://www.w3.org/2000/svg">
<path d="M54.9062 7.63599V35.4782L60.4016 35.5777V17.4153C60.4016 14.7633 63.3146 13.1875 65.6976 12.9253C68.504 12.6164 71.6445 15.0185 71.6445 18.9607C71.6445 22.0273 68.6234 24.6592 66.5974 24.9713C63.817 25.3997 62.4169 24.3107 61.6002 23.7026V28.4912C65.1846 30.6039 71.8514 29.8368 74.9852 24.6634C77.4924 28.3906 82.1627 30.3241 86.7635 29.138L87.7506 28.8301C93.0379 26.9181 96.0026 21.3045 94.5971 15.8668C93.0917 10.0423 87.1438 6.53986 81.3119 8.04335C78.5867 8.74584 76.368 10.417 74.9322 12.5925C74.934 12.5805 74.9368 12.5703 74.9385 12.5583C73.056 9.80246 69.7917 7.88345 65.7972 7.98733C62.5221 8.07261 59.8006 9.43012 59.8006 9.43012V7.63609L54.9062 7.63599ZM84.0828 12.8257C87.3386 12.8257 89.9799 15.4604 89.9799 18.712C89.9799 21.9635 87.3386 24.6012 84.0828 24.6012C80.8271 24.6012 78.189 21.9634 78.189 18.712C78.189 15.4605 80.8271 12.8258 84.0828 12.8258V12.8257Z" fill="#A1A3B0"/>
<path fill-rule="evenodd" clip-rule="evenodd" d="M31.7268 7.63696V35.478L37.2212 35.5784V17.4161C37.2212 14.7642 40.1347 13.1888 42.5177 12.9265C45.324 12.6177 48.7126 15.3685 48.7126 18.9614C48.7126 21.8745 45.945 24.7313 43.4162 25.1209C41.327 25.4427 39.2379 24.3116 38.4212 23.7034V28.4912C41.1933 30.5962 53.5065 30.6875 53.5065 18.4138C53.5065 12.5869 48.0071 7.84662 42.6182 7.98682C39.3431 8.07199 36.6213 9.4316 36.6213 9.4316V7.63696H31.7268ZM3.39889 8.18453L0.700355 14.6209C4.44075 13.2436 7.42583 13.0521 10.2425 13.1244L0.00292969 29.1906H26.4304C28.413 29.104 28.7109 27.835 28.7542 26.8698V16.9173H22.9339V24.251H10.0446L20.1349 8.18453H3.39889Z" fill="#A1A3B0"/>
<path fill-rule="evenodd" clip-rule="evenodd" d="M26.9788 15.2952C30.3764 14.0757 30.4998 9.24723 27.2786 5.46631C27.3261 6.53935 27.138 7.00055 26.8539 7.21259C25.8675 5.55358 25.475 4.44422 23.0321 2.77197C24.1813 7.08861 22.5183 7.76901 22.1329 10.6052C21.7695 13.2796 24.4986 15.1881 24.5809 15.0957C24.3986 15.0805 24.1579 12.606 25.6549 12.5012C27.0573 12.4031 27.0491 15.2551 26.9788 15.2952Z" fill="#A1A3B0"/>
</svg>
