<svg width="18" height="19" viewBox="0 0 18 19" fill="none" xmlns="http://www.w3.org/2000/svg">
<path d="M16.4733 3.86814C16.4733 3.86814 16.6054 2.52959 16.2821 2.20638M16.2821 2.20638C15.957 1.88127 14.6206 2.01635 14.6206 2.01635M16.2821 2.20638L14.25 4.2385" stroke="white" stroke-width="0.95" stroke-linecap="round" stroke-linejoin="round"/>
<path d="M16.4733 15.1089C16.4733 15.1089 16.6054 16.4474 16.2821 16.7706M16.2821 16.7706C15.957 17.0958 14.6206 16.9607 14.6206 16.9607M16.2821 16.7706L14.25 14.7385" stroke="white" stroke-width="0.95" stroke-linecap="round" stroke-linejoin="round"/>
<path d="M1.71786 2.20638L3.75 4.2385M1.71786 2.20638C2.04298 1.88127 3.37945 2.01635 3.37945 2.01635M1.71786 2.20638C1.39465 2.52959 1.52671 3.86813 1.52671 3.86813" stroke="white" stroke-width="0.95" stroke-linecap="round" stroke-linejoin="round"/>
<path d="M1.71786 16.7706L3.75 14.7385M1.71786 16.7706C2.04298 17.0958 3.37945 16.9607 3.37945 16.9607M1.71786 16.7706C1.39465 16.4475 1.52671 15.109 1.52671 15.109" stroke="white" stroke-width="0.95" stroke-linecap="round" stroke-linejoin="round"/>
<path d="M14.25 9.48853C14.25 12.388 11.8995 14.7385 9 14.7385C6.10051 14.7385 3.75 12.388 3.75 9.48853C3.75 6.58903 6.10051 4.23853 9 4.23853C11.8995 4.23853 14.25 6.58903 14.25 9.48853Z" stroke="white" stroke-width="0.95"/>
<path d="M8.9355 7.46448C8.10705 7.46448 7.5 7.94609 7.5 8.50505C7.5 9.06395 7.89143 9.41345 9 9.41345C10.2212 9.41345 10.5 9.97025 10.5 10.5292C10.5 11.0881 9.96622 11.5296 8.9355 11.5296M8.9355 7.46448C9.5886 7.46448 9.93382 7.69312 10.2064 8.0009M8.9355 7.46448V6.8313M8.9355 11.5296C8.2824 11.5296 8.02845 11.4006 7.66875 11.0751M8.9355 11.5296V12.1201" stroke="white" stroke-width="0.95" stroke-linecap="round"/>
</svg>
