<svg width="18" height="19" viewBox="0 0 18 19" fill="none" xmlns="http://www.w3.org/2000/svg">
<path d="M1.5 5.73853H3.64877C4.1938 5.73853 4.71651 5.46876 5.10191 4.98856C5.65232 4.30276 6.46646 4.0633 7.20491 4.36999L8.25 4.80404M1.5 12.4636H2.71551C3.58513 12.4636 4.01993 12.4636 4.43109 12.5795C4.45108 12.5851 4.47101 12.591 4.49087 12.597C4.89944 12.7211 5.26122 12.9542 5.98478 13.4206C7.4009 14.3332 8.109 14.7896 8.88053 14.734C8.9169 14.7314 8.9532 14.7279 8.98942 14.7236C9.7572 14.6318 10.3589 14.0501 11.5625 12.8866L12.75 11.7385" stroke="white" stroke-width="0.95" stroke-linecap="round"/>
<path d="M16.5 5.91391H14.6124C13.8131 5.91391 13.2487 5.47954 12.6752 4.90046C12.3038 4.52538 11.8298 4.30432 11.3316 4.27387C10.7745 4.23984 10.129 4.19191 9.588 4.34053C8.98583 4.50595 8.58825 4.959 8.16765 5.4325L7.08232 6.65436C6.63923 7.15319 6.63923 7.96194 7.08232 8.4608C7.46475 8.8913 8.06393 8.95813 8.51393 8.62033C8.83778 8.37733 9.20573 7.98482 9.58733 7.86121C10.0168 7.7221 10.2832 8.03465 10.5266 8.36345L12.2667 10.7143C12.9125 11.5867 13.2354 12.023 13.6769 12.2557C14.1183 12.4885 14.6227 12.4885 15.6315 12.4885H16.5" stroke="white" stroke-width="0.95" stroke-linecap="round"/>
</svg>
