<svg width="19" height="18" viewBox="0 0 19 18" fill="none" xmlns="http://www.w3.org/2000/svg">
<path d="M15.4335 3.9975C14.436 3.5325 13.356 3.195 12.231 3C12.2113 3.00028 12.1924 3.00837 12.1785 3.0225C12.0435 3.27 11.886 3.5925 11.781 3.84C10.5878 3.66011 9.3743 3.66011 8.18104 3.84C8.07605 3.585 7.91854 3.27 7.77604 3.0225C7.76854 3.0075 7.74604 3 7.72354 3C6.59854 3.195 5.52604 3.5325 4.52104 3.9975C4.51354 3.9975 4.50604 4.005 4.49854 4.0125C2.45854 7.065 1.89604 10.035 2.17354 12.975C2.17354 12.99 2.18104 13.005 2.19604 13.0125C3.54604 14.0025 4.84354 14.6025 6.12604 15C6.14854 15.0075 6.17104 15 6.17854 14.985C6.47854 14.5725 6.74854 14.1375 6.98104 13.68C6.99604 13.65 6.98104 13.62 6.95104 13.6125C6.52354 13.4475 6.11854 13.2525 5.72104 13.0275C5.69104 13.0125 5.69104 12.9675 5.71354 12.945C5.79604 12.885 5.87854 12.8175 5.96104 12.7575C5.97604 12.7425 5.99854 12.7425 6.01354 12.75C8.59354 13.9275 11.376 13.9275 13.926 12.75C13.941 12.7425 13.9635 12.7425 13.9785 12.7575C14.061 12.825 14.1435 12.885 14.226 12.9525C14.256 12.975 14.256 13.02 14.2185 13.035C13.8285 13.2675 13.416 13.455 12.9885 13.62C12.9585 13.6275 12.951 13.665 12.9585 13.6875C13.1985 14.145 13.4685 14.58 13.761 14.9925C13.7835 15 13.806 15.0075 13.8285 15C15.1185 14.6025 16.416 14.0025 17.766 13.0125C17.781 13.005 17.7885 12.99 17.7885 12.975C18.1185 9.5775 17.241 6.63 15.4635 4.0125C15.456 4.005 15.4485 3.9975 15.4335 3.9975ZM7.37105 11.1825C6.59855 11.1825 5.95354 10.47 5.95354 9.5925C5.95354 8.715 6.58355 8.0025 7.37105 8.0025C8.16604 8.0025 8.79604 8.7225 8.78854 9.5925C8.78854 10.47 8.15855 11.1825 7.37105 11.1825ZM12.5985 11.1825C11.826 11.1825 11.181 10.47 11.181 9.5925C11.181 8.715 11.811 8.0025 12.5985 8.0025C13.3935 8.0025 14.0235 8.7225 14.016 9.5925C14.016 10.47 13.3935 11.1825 12.5985 11.1825Z" fill="black" fill-opacity="0.39"/>
</svg>
