<svg width="20" height="21" viewBox="0 0 20 21" fill="none" xmlns="http://www.w3.org/2000/svg">
<path d="M14.9998 11.3202H10.8332V15.4869C10.8332 15.7079 10.7454 15.9199 10.5891 16.0762C10.4328 16.2324 10.2209 16.3202 9.99984 16.3202C9.77882 16.3202 9.56686 16.2324 9.41058 16.0762C9.2543 15.9199 9.1665 15.7079 9.1665 15.4869V11.3202H4.99984C4.77882 11.3202 4.56686 11.2324 4.41058 11.0762C4.2543 10.9199 4.1665 10.7079 4.1665 10.4869C4.1665 10.2659 4.2543 10.0539 4.41058 9.89764C4.56686 9.74136 4.77882 9.65356 4.99984 9.65356H9.1665V5.4869C9.1665 5.26588 9.2543 5.05392 9.41058 4.89764C9.56686 4.74136 9.77882 4.65356 9.99984 4.65356C10.2209 4.65356 10.4328 4.74136 10.5891 4.89764C10.7454 5.05392 10.8332 5.26588 10.8332 5.4869V9.65356H14.9998C15.2209 9.65356 15.4328 9.74136 15.5891 9.89764C15.7454 10.0539 15.8332 10.2659 15.8332 10.4869C15.8332 10.7079 15.7454 10.9199 15.5891 11.0762C15.4328 11.2324 15.2209 11.3202 14.9998 11.3202Z" fill="#6B7280"/>
</svg>
