<svg width="19" height="18" viewBox="0 0 19 18" fill="none" xmlns="http://www.w3.org/2000/svg">
<path d="M9.94287 6.5625C9.29641 6.5625 8.67642 6.81931 8.2193 7.27643C7.76218 7.73355 7.50537 8.35353 7.50537 9C7.50537 9.64646 7.76218 10.2665 8.2193 10.7236C8.67642 11.1807 9.29641 11.4375 9.94287 11.4375C10.5893 11.4375 11.2093 11.1807 11.6664 10.7236C12.1236 10.2665 12.3804 9.64646 12.3804 9C12.3804 8.35353 12.1236 7.73355 11.6664 7.27643C11.2093 6.81931 10.5893 6.5625 9.94287 6.5625Z" fill="black" fill-opacity="0.39"/>
<path fill-rule="evenodd" clip-rule="evenodd" d="M6.02034 2.31133C8.62736 2.02253 11.2583 2.02253 13.8653 2.31133C15.2896 2.47033 16.4378 3.59158 16.6051 5.02108C16.914 7.66458 16.914 10.3351 16.6051 12.9786C16.4378 14.4081 15.2896 15.5293 13.8661 15.6891C11.2588 15.9779 8.62761 15.9779 6.02034 15.6891C4.59609 15.5293 3.44784 14.4081 3.28059 12.9793C2.97157 10.3356 2.97157 7.66483 3.28059 5.02108C3.44784 3.59158 4.59609 2.47033 6.02034 2.31133ZM13.6928 4.49983C13.4939 4.49983 13.3032 4.57885 13.1625 4.7195C13.0219 4.86015 12.9428 5.05092 12.9428 5.24983C12.9428 5.44874 13.0219 5.63951 13.1625 5.78016C13.3032 5.92081 13.4939 5.99983 13.6928 5.99983C13.8918 5.99983 14.0825 5.92081 14.2232 5.78016C14.3638 5.63951 14.4428 5.44874 14.4428 5.24983C14.4428 5.05092 14.3638 4.86015 14.2232 4.7195C14.0825 4.57885 13.8918 4.49983 13.6928 4.49983ZM6.38034 8.99983C6.38034 8.055 6.75567 7.14886 7.42377 6.48076C8.09187 5.81266 8.998 5.43733 9.94284 5.43733C10.8877 5.43733 11.7938 5.81266 12.4619 6.48076C13.13 7.14886 13.5053 8.055 13.5053 8.99983C13.5053 9.94466 13.13 10.8508 12.4619 11.5189C11.7938 12.187 10.8877 12.5623 9.94284 12.5623C8.998 12.5623 8.09187 12.187 7.42377 11.5189C6.75567 10.8508 6.38034 9.94466 6.38034 8.99983Z" fill="black" fill-opacity="0.39"/>
</svg>
