<svg width="24" height="25" viewBox="0 0 24 25" fill="none" xmlns="http://www.w3.org/2000/svg">
<path d="M6.08938 15.4878C5.71097 14.6372 5.5 13.6909 5.5 12.6937C5.5 8.99012 8.41015 5.98779 12 5.98779C15.5899 5.98779 18.5 8.99012 18.5 12.6937C18.5 13.6909 18.289 14.6372 17.9106 15.4878" stroke="#EAE68B" stroke-width="1.5" stroke-linecap="round"/>
<path d="M12 2.48779V3.48779" stroke="#EAE68B" stroke-width="1.5" stroke-linecap="round" stroke-linejoin="round"/>
<path d="M22 12.4878H21" stroke="#EAE68B" stroke-width="1.5" stroke-linecap="round" stroke-linejoin="round"/>
<path d="M3 12.4878H2" stroke="#EAE68B" stroke-width="1.5" stroke-linecap="round" stroke-linejoin="round"/>
<path d="M19.0704 5.4165L18.3633 6.12361" stroke="#EAE68B" stroke-width="1.5" stroke-linecap="round" stroke-linejoin="round"/>
<path d="M5.6368 6.12459L4.92969 5.41748" stroke="#EAE68B" stroke-width="1.5" stroke-linecap="round" stroke-linejoin="round"/>
<path d="M14.5175 19.7942C15.5279 19.4674 15.9331 18.5426 16.0471 17.6124C16.0811 17.3345 15.8525 17.104 15.5725 17.104L8.47734 17.1042C8.18774 17.1042 7.95516 17.35 7.98974 17.6375C8.10139 18.5659 8.38319 19.2441 9.45394 19.7942M14.5175 19.7942C14.5175 19.7942 9.6302 19.7942 9.45394 19.7942M14.5175 19.7942C14.396 21.7392 13.8343 22.5095 12.0073 22.4879C10.0531 22.524 9.60352 21.5719 9.45394 19.7942" stroke="#EAE68B" stroke-width="1.5" stroke-linecap="round" stroke-linejoin="round"/>
</svg>
