<svg width="18" height="19" viewBox="0 0 18 19" fill="none" xmlns="http://www.w3.org/2000/svg">
<path d="M10.5 2.13856C10.0153 2.04017 9.51367 1.98853 9 1.98853C4.85786 1.98853 1.5 5.34639 1.5 9.48853C1.5 13.6306 4.85786 16.9885 9 16.9885C13.1421 16.9885 16.5 13.6306 16.5 9.48853C16.5 8.97485 16.4483 8.47318 16.35 7.98853" stroke="white" stroke-width="0.95" stroke-linecap="round"/>
<path d="M9 7.23853C8.17155 7.23853 7.5 7.7422 7.5 8.36353C7.5 8.98483 8.17155 9.48853 9 9.48853C9.82845 9.48853 10.5 9.99223 10.5 10.6135C10.5 11.2348 9.82845 11.7385 9 11.7385M9 7.23853C9.6531 7.23853 10.2087 7.55158 10.4146 7.98853M9 7.23853V6.48853M9 11.7385C8.3469 11.7385 7.7913 11.4255 7.58535 10.9885M9 11.7385V12.4885" stroke="white" stroke-width="0.95" stroke-linecap="round"/>
<path d="M12.7471 5.73999L15.879 2.60634M16.4971 5.34867L16.4084 3.03005C16.4084 2.48357 16.0822 2.14308 15.4878 2.10014L13.1447 1.98999" stroke="white" stroke-width="0.95" stroke-linecap="round" stroke-linejoin="round"/>
</svg>
