<svg width="24" height="25" viewBox="0 0 24 25" fill="none" xmlns="http://www.w3.org/2000/svg">
<path d="M18 8.48853C19.6569 8.48853 21 7.14538 21 5.48853C21 3.83167 19.6569 2.48853 18 2.48853C16.3431 2.48853 15 3.83167 15 5.48853C15 7.14538 16.3431 8.48853 18 8.48853Z" stroke="#EAE68B" stroke-width="1.5" stroke-linecap="round" stroke-linejoin="round"/>
<path d="M6 22.4885C7.65685 22.4885 9 21.1454 9 19.4885C9 17.8317 7.65685 16.4885 6 16.4885C4.34315 16.4885 3 17.8317 3 19.4885C3 21.1454 4.34315 22.4885 6 22.4885Z" stroke="#EAE68B" stroke-width="1.5" stroke-linecap="round" stroke-linejoin="round"/>
<path d="M12 5.48853H8.5C6.567 5.48853 5 7.05553 5 8.98853C5 10.9215 6.567 12.4885 8.5 12.4885H15.5C17.433 12.4885 19 14.0555 19 15.9885C19 17.9215 17.433 19.4885 15.5 19.4885H12" stroke="#EAE68B" stroke-width="1.5" stroke-linecap="round" stroke-linejoin="round"/>
</svg>
