<svg width="18" height="19" viewBox="0 0 18 19" fill="none" xmlns="http://www.w3.org/2000/svg">
<path d="M8.95642 4.98853L7.18495 13.3027C7.04398 13.9643 7.12157 14.212 7.60747 14.6872L9.57255 16.6086C9.8316 16.8619 9.96112 16.9885 10.1221 16.9885C10.283 16.9885 10.4125 16.8619 10.6716 16.6086L12.6367 14.6872C13.1226 14.212 13.2001 13.9643 13.0592 13.3027L11.2877 4.98853" stroke="white" stroke-width="1.125" stroke-linecap="round" stroke-linejoin="round"/>
<path d="M7.91416 2.8313C7.86361 2.43839 7.83834 2.24193 7.95354 2.11511C8.06881 1.98828 8.27259 1.98828 8.68014 1.98828H11.563C11.9705 1.98828 12.1743 1.98828 12.2896 2.11511C12.4048 2.24193 12.3795 2.43839 12.329 2.8313L12.2909 3.12776C12.1839 3.95867 12.1305 4.37411 11.8634 4.64365C11.8199 4.68744 11.7729 4.72775 11.7228 4.76416C11.4144 4.98828 10.9835 4.98828 10.1216 4.98828C9.25966 4.98828 8.82871 4.98828 8.52031 4.76416C8.47021 4.72775 8.42319 4.68744 8.37976 4.64365C8.11261 4.37411 8.05921 3.95867 7.95226 3.12776L7.91416 2.8313Z" stroke="white" stroke-width="1.125" stroke-linecap="round" stroke-linejoin="round"/>
<path d="M7.49902 11.7385C7.0432 12.2579 6.65723 12.4885 6.37402 12.4885C6.01074 12.4885 5.35672 11.5731 5.06646 10.9101C4.93026 10.599 4.86217 10.4434 4.87572 10.2466C4.88925 10.0498 4.97845 9.9059 5.15685 9.61805C6.16562 7.99033 7.88491 6.50437 8.99904 4.98853" stroke="white" stroke-width="1.125" stroke-linejoin="round"/>
</svg>
