<svg width="17" height="17" viewBox="0 0 17 17" fill="none" xmlns="http://www.w3.org/2000/svg">
<path d="M10.7933 5.81913C10.8897 5.81958 10.9821 5.85808 11.0503 5.92627C11.1185 5.99446 11.157 6.08682 11.1574 6.18325L11.1574 9.61835C11.1592 9.66724 11.151 9.71599 11.1335 9.76167C11.116 9.80736 11.0894 9.84904 11.0554 9.88425C11.0215 9.91945 10.9807 9.94745 10.9357 9.96657C10.8907 9.98569 10.8422 9.99555 10.7933 9.99555C10.7444 9.99555 10.696 9.98569 10.6509 9.96657C10.6059 9.94745 10.5652 9.91945 10.5312 9.88425C10.4972 9.84904 10.4706 9.80736 10.4531 9.76167C10.4356 9.71599 10.4275 9.66724 10.4292 9.61835L10.4292 7.06264L6.92883 10.563C6.8605 10.6313 6.76783 10.6697 6.6712 10.6697C6.57457 10.6697 6.4819 10.6313 6.41357 10.563C6.34524 10.4947 6.30685 10.402 6.30685 10.3054C6.30685 10.2087 6.34524 10.1161 6.41357 10.0477L9.91393 6.54737L7.35822 6.54737C7.26387 6.54404 7.1745 6.50422 7.10894 6.4363C7.04337 6.36838 7.00673 6.27766 7.00673 6.18325C7.00673 6.08885 7.04337 5.99813 7.10894 5.93021C7.1745 5.86228 7.26387 5.82246 7.35822 5.81913L10.7933 5.81913Z" fill="#1F253F"/>
</svg>
