<svg width="17" height="17" viewBox="0 0 17 17" fill="none" xmlns="http://www.w3.org/2000/svg">
<path d="M10.305 5.81913C10.4015 5.81958 10.4938 5.85808 10.562 5.92627C10.6302 5.99446 10.6687 6.08682 10.6692 6.18325L10.6692 9.61835C10.6709 9.66724 10.6627 9.71599 10.6452 9.76167C10.6277 9.80736 10.6011 9.84904 10.5672 9.88425C10.5332 9.91945 10.4925 9.94745 10.4474 9.96657C10.4024 9.98569 10.354 9.99555 10.305 9.99555C10.2561 9.99555 10.2077 9.98569 10.1626 9.96657C10.1176 9.94745 10.0769 9.91945 10.0429 9.88425C10.0089 9.84904 9.98237 9.80736 9.96485 9.76167C9.94733 9.71599 9.93919 9.66724 9.94091 9.61835L9.94091 7.06264L6.44055 10.563C6.37222 10.6313 6.27955 10.6697 6.18292 10.6697C6.08629 10.6697 5.99362 10.6313 5.92529 10.563C5.85696 10.4947 5.81857 10.402 5.81857 10.3054C5.81857 10.2087 5.85696 10.1161 5.92529 10.0477L9.42565 6.54737L6.86994 6.54737C6.77559 6.54404 6.68622 6.50422 6.62065 6.4363C6.55509 6.36838 6.51844 6.27766 6.51844 6.18325C6.51844 6.08885 6.55509 5.99813 6.62065 5.93021C6.68622 5.86228 6.77559 5.82246 6.86994 5.81913L10.305 5.81913Z" fill="white"/>
</svg>
